<?xml version="1.0" standalone="no"?>
<!DOCTYPE svg PUBLIC "-//W3C//DTD SVG 1.1//EN" "http://www.w3.org/Graphics/SVG/1.1/DTD/svg11.dtd" >
<svg xmlns="http://www.w3.org/2000/svg" xmlns:xlink="http://www.w3.org/1999/xlink" version="1.1">
<metadata>
Created by FontForge 20161003 at Wed Apr 12 04:12:07 2017
 By www-data
Public Domain
</metadata>
<defs>
<font id="DyerArtsandCrafts" horiz-adv-x="1209" >
  <font-face 
    font-family="DyerArtsandCrafts"
    font-weight="400"
    font-style="italic"
    font-stretch="normal"
    units-per-em="2248"
    panose-1="0 0 0 0 0 0 0 0 0 0"
    ascent="1798"
    descent="-450"
    x-height="1729"
    cap-height="1730"
    bbox="-37 -462 2434 2225"
    underline-thickness="40"
    underline-position="-326"
    slope="180"
    unicode-range="U+000D-2219"
  />
<missing-glyph horiz-adv-x="1124" 
d="M70 0v1948h984v-1948h-984zM984 70v1808h-844v-1808h844z" />
    <glyph glyph-name=".notdef" horiz-adv-x="1124" 
d="M70 0v1948h984v-1948h-984zM984 70v1808h-844v-1808h844z" />
    <glyph glyph-name=".null" horiz-adv-x="0" 
 />
    <glyph glyph-name="nonmarkingreturn" unicode="&#xd;" horiz-adv-x="400" 
 />
    <glyph glyph-name="NULL" horiz-adv-x="0" 
 />
    <glyph glyph-name="NULL" horiz-adv-x="0" 
 />
    <glyph glyph-name="space" unicode=" " horiz-adv-x="400" 
 />
    <glyph glyph-name="exclam" unicode="!" horiz-adv-x="565" 
d="M422 1730l-6 -297l-16 -499q-2 -78 -1.5 -139.5t-0.5 -106.5l-3 -210q-1 -60 -1.5 -105t-0.5 -75h-222q0 73 -0.5 130.5t-1.5 102.5l-3 210q-1 62 -1 109.5t-1 81.5l-15 501l-8 297h281zM393 0h-222v221h222v-221z" />
    <glyph glyph-name="quotedbl" unicode="&#x22;" horiz-adv-x="870" 
d="M719 1730q0 -88 -7.5 -173t-15.5 -170h-175q0 43 -5 127t-18 216h221zM372 1730q-11 -128 -17 -213t-6 -130h-176q0 45 -6 130t-17 213h222z" />
    <glyph glyph-name="numbersign" unicode="#" horiz-adv-x="1287" 
d="M1232 1117l-23 -196h-244l-28 -229h244l-25 -196h-242l-60 -496h-203l62 496h-210l-60 -496h-203l63 496h-242l25 196h242l27 229h-242l23 196h242l55 445h200l-53 -445h209l56 445h198l-53 -445h242zM766 921h-207l-31 -229h210z" />
    <glyph glyph-name="dollar" unicode="$" horiz-adv-x="1144" 
d="M1026 383q0 -152 -94 -252q-94 -99 -261 -124q0 -70 42 -146h-291q11 17 19 35t13 37t8.5 37.5t3.5 36.5q-102 18 -195 68q-48 26 -95.5 60.5t-95.5 79.5l164 216q62 -100 153 -167q92 -68 171 -68q100 0 157 53.5t57 147.5q0 85 -64 170q-42 59 -180 181l-85 75
q-25 22 -46 40.5t-38 35.5q-45 42 -79 81.5t-57 76.5q-55 88 -55 185q0 61 15.5 108.5t48.5 89.5q61 76 174 111q0 18 -2.5 34.5t-8.5 39.5q-9 34 -33 71h290q-42 -78 -42 -138q32 -6 60.5 -14.5t53.5 -21.5q27 -9 54.5 -23.5t56.5 -33.5l-145 -193q-57 45 -92 58
q-38 15 -74 15q-63 0 -92 -25t-29 -67q0 -31 26.5 -72t80.5 -91l108 -100q31 -29 59.5 -53.5t52.5 -47.5q90 -85 146 -148.5t81 -105.5q59 -100 59 -252z" />
    <glyph glyph-name="percent" unicode="%" horiz-adv-x="1772" 
d="M1636 399q0 -204 -68 -309q-72 -113 -220 -113q-139 0 -208 126q-31 57 -45.5 126t-14.5 162q0 196 62 350q73 180 203 180q144 0 224 -173q67 -144 67 -349zM1371 1562q-26 -32 -48.5 -62t-39.5 -56q-15 -22 -27.5 -44.5t-21.5 -45.5l-534 -1354h-267q21 22 43 53.5
t43 68.5q7 11 13 23t11 23q2 5 7.5 18t14.5 35l536 1341h270zM692 1041q0 -203 -68 -309q-74 -114 -220 -114q-137 0 -208 128q-60 109 -60 286q0 196 62 352q72 178 204 178q142 0 223 -173q67 -144 67 -348zM1465 420q0 105 -27 191q-33 100 -88 100q-45 0 -72 -99
t-27 -206q0 -122 29 -178q25 -48 70 -48q68 0 97 75q18 51 18 165zM521 1062q0 57 -6.5 102.5t-20.5 87.5q-34 100 -88 100q-45 0 -72 -99t-27 -206q0 -61 7 -105t23 -73q24 -47 69 -47q71 0 97 75q18 51 18 165z" />
    <glyph glyph-name="ampersand" unicode="&#x26;" horiz-adv-x="1322" 
d="M1216 849q-26 -48 -36 -99q-3 -26 -5 -51t-2 -53v-406q0 -21 -23 -42l-91 -66q-41 -29 -83.5 -50.5t-85.5 -37.5q-60 -23 -118 -33.5t-121 -10.5q-256 0 -405 164q-69 75 -102 171.5t-33 213.5q0 168 102 322q45 69 100.5 120.5t119.5 88.5q-104 33 -162 100
q-63 75 -63 186q0 154 107 259q106 105 276 105q105 0 180 -22q38 -11 71 -25.5t62 -36.5l-103 -206q-30 20 -57.5 34.5t-53.5 23.5t-53 13.5t-57 4.5q-63 0 -107 -41q-42 -41 -42 -109q0 -76 84 -131q85 -56 214 -56l-18 -196q-166 -19 -272 -149q-100 -124 -100 -285
q0 -141 82 -235q45 -51 102.5 -76.5t132.5 -25.5q33 0 62.5 4t55.5 12q34 10 70 27.5t81 47.5l16 11q6 9 7 25v307v15v13q0 44 -5 69q-10 60 -41 106h314z" />
    <glyph glyph-name="quotesingle" unicode="'" horiz-adv-x="521" 
d="M372 1730q-11 -128 -17 -213t-6 -130h-176q0 45 -6 130t-17 213h222z" />
    <glyph glyph-name="parenleft" unicode="(" horiz-adv-x="563" 
d="M517 61l-74 -59l-10 -4q-7 0 -29 19q-135 117 -218 336q-89 234 -89 513q0 274 90 511q42 111 96 197t125 148q16 15 28 8q9 -4 32 -22q8 -6 16.5 -12t25.5 -21q6 -4 8 -12q0 -5 -3 -12t-8 -15q-46 -84 -78.5 -166.5t-53.5 -164.5q-47 -186 -47 -435q0 -105 10.5 -201
t33.5 -198q26 -113 60.5 -208.5t80.5 -176.5l7 -18z" />
    <glyph glyph-name="parenright" unicode=")" horiz-adv-x="563" 
d="M457 866q0 -142 -21 -269.5t-66 -243.5q-41 -108 -96 -191.5t-124 -144.5q-21 -18 -30 -19l-9 4l-74 53q-6 4 -6 8l11 23q38 81 76 175t64 209q23 100 34 202t11 198q0 123 -12 231.5t-34 196.5t-54.5 169t-80.5 169q-6 11 -8 18t-2 9q0 6 8 12l42 32q5 5 10.5 9.5
t12.5 7.5l8 6t11 3q6 0 17 -11q136 -118 222 -344q90 -236 90 -512z" />
    <glyph glyph-name="asterisk" unicode="*" horiz-adv-x="895" 
d="M814 1392l-37 3q-17 2 -33 -0.5t-30 -6.5q-14 -3 -28.5 -7.5t-34.5 -12.5l-71 -27q5 -8 10 -17t12 -18l26 -32q14 -17 27 -31t25 -27q17 -17 35 -30.5t40 -24.5l-194 -143q0 14 -2 24q-1 5 -4 15t-9 27q-6 18 -18 39.5t-34 46.5q-3 5 -11 13.5t-11 11.5l-12 12l-7 7t-5 7
l-23 -25l-21 -23q-6 -7 -10.5 -13.5t-8.5 -11.5q-5 -8 -11.5 -19t-13.5 -25q-20 -42 -26 -86l-193 143q22 11 40.5 22.5t34.5 30.5l51 60l31 41l18 26l-72 27l-64 20q-29 10 -63 7l-37 -3l86 225q14 -17 30 -31.5t35 -25.5q12 -8 29.5 -15.5t44.5 -18.5q5 -5 32 -11l25 -8
v62v12q0 21 -1 37.5t-3 28.5q-7 46 -32 83h244q-10 -18 -17 -35.5t-12 -40.5q-2 -21 -3.5 -42t-1.5 -43v-62q9 0 15 2l22 9l18 8q23 11 37.5 16t20.5 9q43 20 80 66z" />
    <glyph glyph-name="plus" unicode="+" horiz-adv-x="880" 
d="M669 547h-142v-180h-189v180h-222l92 193h130v181h189v-181h234z" />
    <glyph glyph-name="comma" unicode="," horiz-adv-x="347" 
d="M318 61q0 -87 -74 -172q-73 -85 -131 -85q-37 0 -73 36q30 35 49 65q10 17 17 31.5t14 35.5q-29 20 -48 56q-19 39 -19 71q0 25 9.5 46.5t26 37.5t39.5 25t50 9q60 0 100 -48q40 -46 40 -108z" />
    <glyph glyph-name="hyphen" unicode="-" horiz-adv-x="667" 
d="M413 648h-253l99 222h253z" />
    <glyph glyph-name="period" unicode="." horiz-adv-x="347" 
d="M288 116q0 -48 -35 -83q-35 -33 -82 -33q-51 0 -84.5 32.5t-33.5 83.5q0 47 35 82t83 35q47 0 82 -35t35 -82z" />
    <glyph glyph-name="slash" unicode="/" horiz-adv-x="1110" 
d="M1022 1730l-704 -1730h-234l698 1730h240z" />
    <glyph glyph-name="zero" unicode="0" horiz-adv-x="1049" 
d="M988 692q0 -343 -116 -525q-121 -190 -365 -190q-221 0 -341 214q-103 187 -103 486q0 106 11 204.5t36 201.5q50 206 146 336q105 143 249 143q158 0 276 -139q100 -117 156 -332q25 -99 38 -197.5t13 -201.5zM784 719q0 119 -17.5 225t-52.5 201q-81 221 -207 221
q-110 0 -180 -232q-62 -206 -62 -444q0 -96 12.5 -180t39.5 -158q65 -179 190 -179q112 0 175 81q29 35 48 85.5t33 115.5q21 106 21 264z" />
    <glyph glyph-name="one" unicode="1" horiz-adv-x="517" 
d="M116 0q14 22 24.5 48t15.5 57q6 34 6 99v1005q0 43 -22 71q-12 16 -28.5 26.5t-42.5 15.5l291 275v-1393q0 -27 1 -52.5t5.5 -50.5t13.5 -49.5t24 -51.5h-288z" />
    <glyph glyph-name="two" unicode="2" horiz-adv-x="1043" 
d="M921 0h-881v180l136 157l128 154q26 31 54 66t60 73q133 162 201 279q81 142 81 249q0 98 -64 156q-64 59 -159 59q-53 0 -107 -28q-26 -14 -50 -33t-50 -45l-159 192q45 26 82.5 44.5t69.5 29.5q93 29 229 29q198 0 314 -111q115 -111 115 -270q0 -49 -11 -102t-31 -108
q-36 -93 -108 -205q-27 -43 -62.5 -91t-83.5 -110q-40 -51 -82 -103.5t-89 -106.5q-40 -46 -75.5 -85t-67.5 -72h414q38 0 64 2.5t40 6.5q20 5 43 17.5t49 34.5v-259z" />
    <glyph glyph-name="three" unicode="3" horiz-adv-x="1068" 
d="M1011 542q0 -248 -162 -408q-78 -77 -175.5 -116t-216.5 -39q-148 0 -237 19q-46 10 -98.5 31t-112.5 55l148 216q61 -70 124 -96t181 -26q133 0 237 104q104 106 104 252q0 169 -117 253q-101 71 -266 71v174q63 10 107 23.5t70 30.5q77 48 77 144q0 54 -44 93
q-23 20 -47 30.5t-53 10.5q-47 0 -98 -19q-26 -10 -47 -22t-46 -30l-122 198q38 19 71 31t71 22q33 9 68 13.5t80 4.5q163 0 281 -82q131 -92 131 -236q0 -80 -41 -151q-35 -63 -115 -110q48 -22 90 -58.5t77 -90.5q81 -125 81 -292z" />
    <glyph glyph-name="four" unicode="4" horiz-adv-x="983" 
d="M971 457h-297v-253q0 -24 0.5 -43t2.5 -35t4.5 -30t7.5 -29q9 -30 28 -67h-290q31 43 41 105q3 19 4 43.5t1 55.5v253h-452v155l343 780q3 6 6.5 15t6.5 20l10 35l12 56q2 8 3.5 17t3.5 18h254l-408 -900h221v409l201 103v-512h297v-196z" />
    <glyph glyph-name="five" unicode="5" horiz-adv-x="1057" 
d="M999 593q0 -282 -162 -448q-160 -166 -452 -166q-120 0 -202 25q-84 26 -187 97l147 208q33 -30 62 -51t62 -36q74 -35 155 -35q158 0 261 112q104 113 104 275q0 134 -82 216q-87 89 -228 89q-40 0 -70.5 -3t-62.5 -12q-58 -15 -121 -57v746h707v-270q-56 43 -94 59
q-35 14 -96 14h-324v-280q18 3 48.5 6t59.5 3q207 0 341 -137t134 -355z" />
    <glyph glyph-name="six" unicode="6" horiz-adv-x="1036" 
d="M1001 443q0 -203 -128 -331q-128 -126 -314 -126q-225 0 -360 167q-134 167 -134 438q0 121 35 250t104 271q128 260 317 439h259q-125 -125 -219 -252q-121 -163 -194 -332q-85 -197 -85 -376q0 -171 70 -280q76 -117 207 -117q51 0 92 17.5t71 53.5q62 74 62 197
q0 83 -48 142q-48 60 -113 60q-25 0 -44 -6.5t-37 -22.5q-32 -29 -32 -67q0 -20 5 -34.5t19 -30.5q18 -24 66 -49q-56 -57 -102 -57q-34 0 -64 15t-54 47q-26 32 -37 67.5t-11 78.5q0 104 81 184q82 79 192 79q168 0 282 -120q114 -119 114 -305z" />
    <glyph glyph-name="seven" unicode="7" horiz-adv-x="978" 
d="M923 1398q-70 -132 -130.5 -263t-114.5 -265q-97 -244 -188 -538q-14 -41 -21 -90q-3 -21 -5 -42.5t-2 -44.5q0 -76 18 -155h-316q5 23 9.5 47t9.5 47q8 38 17 72.5t17 64.5q23 86 60 185l47 124l50 128l52 133q17 44 39.5 99.5t51.5 124.5q13 32 25.5 63.5t26.5 63.5
l89 208h-423q-75 0 -161 -65v258h849v-155z" />
    <glyph glyph-name="eight" unicode="8" horiz-adv-x="1003" 
d="M953 553q0 -250 -110 -408q-60 -85 -140.5 -126.5t-183.5 -41.5q-209 0 -330 136q-126 142 -126 413q0 91 13 163t42 133q55 118 161 189q-26 20 -47.5 46.5t-37.5 58t-25 66.5t-9 73q0 131 94 219q94 90 228 90q146 0 243 -71q108 -81 108 -228q0 -84 -29 -147
q-16 -33 -36 -57.5t-53 -47.5q51 -26 91 -62.5t70 -84.5q39 -63 58 -141t19 -172zM644 1251q0 54 -41 89t-107 35q-58 0 -96 -37q-38 -36 -38 -92q0 -58 38 -99q19 -20 44.5 -29.5t56.5 -9.5q69 0 106 40t37 103zM740 563q0 141 -50 226q-64 106 -189 106q-122 0 -179 -112
q-47 -91 -47 -270q0 -135 56 -229q67 -109 179 -109q124 0 181 107q49 93 49 281z" />
    <glyph glyph-name="nine" unicode="9" horiz-adv-x="1103" 
d="M1030 877q0 -225 -66 -423q-36 -108 -88 -191t-118 -145q-75 -69 -163 -104t-193 -35q-52 0 -104 7.5t-104 24.5q-49 15 -92.5 36.5t-80.5 47.5l168 180q24 -23 51 -41t54 -30q49 -21 122 -21q127 0 222 111q81 98 127 255q21 72 30.5 138t9.5 135q-26 -26 -56 -45.5
t-65 -33.5q-64 -26 -148 -26q-199 0 -308 120q-106 115 -106 294q0 92 24 167.5t75 134.5q55 66 132 97.5t177 31.5q254 0 386 -214q58 -94 86 -211t28 -260zM776 1070q-11 58 -28.5 107t-42.5 89q-68 107 -175 107q-80 0 -140 -65t-60 -150q0 -101 58 -168t157 -67
q41 0 77 10.5t66 30t52.5 46.5t35.5 60z" />
    <glyph glyph-name="colon" unicode=":" horiz-adv-x="347" 
d="M288 854q0 -47 -35 -82q-34 -34 -82 -34q-24 0 -45.5 9t-37.5 24.5t-25.5 37t-9.5 45.5q0 48 34 82q35 35 84 35q24 0 45.5 -9t37.5 -25t25 -37.5t9 -45.5zM288 116q0 -48 -35 -83q-35 -33 -82 -33q-51 0 -84.5 32.5t-33.5 83.5q0 47 35 82t83 35q47 0 82 -35t35 -82z
" />
    <glyph glyph-name="semicolon" unicode=";" horiz-adv-x="347" 
d="M300 807q0 -47 -36 -83t-89 -36q-49 0 -87 35q-37 34 -37 84t36 88q37 37 88 37q52 0 88 -37q37 -37 37 -88zM318 61q0 -87 -74 -172q-73 -85 -131 -85q-37 0 -73 36q30 35 49 65q10 17 17 31.5t14 35.5q-29 20 -48 56q-19 39 -19 71q0 25 9.5 46.5t26 37.5t39.5 25t50 9
q60 0 100 -48q40 -46 40 -108z" />
    <glyph glyph-name="less" unicode="&#x3c;" horiz-adv-x="881" 
d="M725 408l-111 -135l-494 318v97l494 319l111 -137l-355 -231z" />
    <glyph glyph-name="equal" unicode="=" horiz-adv-x="779" 
d="M605 700h-550l86 187h550zM605 402h-550l86 187h550z" />
    <glyph glyph-name="greater" unicode="&#x3e;" horiz-adv-x="881" 
d="M761 591l-494 -318l-110 135l356 231l-356 231l110 137l494 -319v-97z" />
    <glyph glyph-name="question" unicode="?" horiz-adv-x="1142" 
d="M1049 1297q0 -58 -6.5 -102.5t-20.5 -86.5q-11 -34 -29.5 -67t-45.5 -65q-17 -22 -45 -49t-65 -63l-228 -223q-64 -63 -80 -113q-16 -49 -16 -163v-67h-223v171q0 97 50 180q17 29 55 72.5t95 100.5l101 103l73 76q45 47 73 83t45 63q42 64 42 125q0 87 -72 159t-172 72
q-78 0 -154 -49q-82 -55 -128 -144l-199 111q31 69 71 119.5t97 91.5q134 96 324 96q180 0 313 -113q145 -123 145 -318zM519 116q0 -23 -8 -44t-26 -39q-33 -33 -83 -33q-26 0 -47.5 9t-37 24.5t-24.5 37t-9 45.5q0 47 34 81q34 36 84 36q47 0 82 -36q35 -35 35 -81z" />
    <glyph glyph-name="at" unicode="@" horiz-adv-x="1549" 
d="M1488 891q0 -267 -99 -399q-88 -118 -247 -118q-102 0 -166 34q-33 17 -57 41t-42 56q-7 -4 -15 -8q-11 -4 -24 -8t-44 -4q-159 0 -259 97q-56 54 -84.5 129.5t-28.5 175.5q0 186 119 323q124 142 317 142h210q-5 -30 -8.5 -60.5t-6.5 -58t-4.5 -51t-1.5 -38.5v-475
q0 -118 109 -118q51 0 87 77q42 90 42 263q0 273 -118 453q-129 197 -355 197q-239 0 -392 -187q-153 -186 -153 -463q0 -275 151 -451q151 -177 396 -177v-212q-346 0 -557 247q-202 235 -202 593q0 350 206 591q215 248 553 248q324 0 506 -249q168 -231 168 -590z
M851 1181q-99 -14 -163 -95q-63 -81 -63 -205q0 -54 11 -95t34 -69q37 -46 101 -46q14 0 24 1t19 5q17 3 37 17v487z" />
    <glyph glyph-name="A" unicode="A" horiz-adv-x="1223" 
d="M782 0q15 22 25.5 48t15.5 57q3 19 4 43.5t1 55.5v322h-502l-1 -99v-27.5t-1 -31.5t-1 -27.5v-15.5q0 -112 9 -194t38 -131h-324q33 48 49 101q8 29 12 52t4 51v260q0 301 124 595t340 480q229 196 449 196h30q5 0 16 -1t26 -4q-13 -22 -22 -45.5t-14 -48.5
q-4 -24 -5.5 -48.5t-1.5 -52.5v-1331q0 -29 1 -53t4 -42q5 -28 14.5 -55.5t23.5 -53.5h-314zM828 740v740q-58 -32 -115 -83.5t-112 -125.5q-47 -62 -86.5 -132.5t-73.5 -149.5q-59 -135 -81 -249h468z" />
    <glyph glyph-name="B" unicode="B" horiz-adv-x="1236" 
d="M1192 942q0 -219 -173 -446q-81 -106 -183 -194t-232 -161q-249 -141 -480 -141q15 22 25.5 48t15.5 57q3 17 4.5 43.5t1.5 55.5v1324q0 62 -6 97q-10 61 -41 105h675q128 0 198 -41q92 -53 92 -173q0 -37 -9.5 -67t-30.5 -59q-38 -53 -117 -86q107 -28 181 -126
q79 -105 79 -236zM840 1472q0 25 -20 39q-12 7 -25.5 11t-31.5 4h-368v-116h368q34 0 57 17q20 18 20 45zM944 914q0 117 -82 199q-81 83 -202 83h-265v-882q55 12 110.5 38.5t121.5 74.5q67 49 122 103t98 114q97 136 97 270z" />
    <glyph glyph-name="C" unicode="C" 
d="M1140 -14q-140 34 -263.5 88t-240.5 132q-251 167 -392 396q-79 129 -117.5 267t-38.5 287q0 254 152 421q153 168 380 168q31 0 68 -1t61 -3l204 -11v-302q-37 24 -76 44t-71 31t-69.5 15t-80.5 4q-150 0 -242 -104q-91 -103 -91 -276q0 -241 152 -462q66 -94 149 -172
t186 -141q188 -113 330 -113v-268z" />
    <glyph glyph-name="D" unicode="D" horiz-adv-x="1293" 
d="M1205 1152q0 -278 -173 -547q-161 -249 -413 -416q-251 -167 -495 -189q31 48 41 111q6 36 6 97v1335q0 29 -1.5 55.5t-4.5 43.5q-5 31 -15.5 57t-25.5 48h595q220 0 353 -157t133 -438zM976 1154q0 90 -20.5 159.5t-64.5 118.5q-39 45 -91.5 66.5t-118.5 21.5h-286
v-1173q213 71 392 305q189 247 189 502z" />
    <glyph glyph-name="E" unicode="E" horiz-adv-x="1192" 
d="M395 1190v-967h438q71 0 131 23l72 40v-286h-912q15 22 25.5 48t15.5 57q3 17 4.5 43.5t1.5 55.5v1324q0 62 -6 97q-10 61 -41 105h912v-286q-28 17 -51.5 29.5t-43.5 19.5q-40 14 -108 14h-438v-92h738v-287q-29 18 -48.5 28.5t-41.5 18.5t-50 11.5t-63 3.5h-535z" />
    <glyph glyph-name="F" unicode="F" horiz-adv-x="1192" 
d="M395 1190v-986q0 -32 3 -56.5t10 -47t19 -46.5t30 -54h-333q15 22 25.5 48t15.5 57q3 17 4.5 43.5t1.5 55.5v1324q0 62 -6 97q-10 61 -41 105h912v-286q-64 37 -90 47q-42 16 -113 16h-438v-92h738v-287q-29 18 -48.5 28.5t-41.5 18.5t-50 11.5t-63 3.5h-535z" />
    <glyph glyph-name="G" unicode="G" horiz-adv-x="1322" 
d="M1205 -28q-461 125 -781 457q-336 348 -336 769q0 248 152 394q145 138 380 138h398v-313q-177 105 -344 105q-148 0 -248 -89q-108 -98 -108 -263q0 -234 201 -501q184 -244 408 -343v736v15v12q0 44 -5 69q-5 30 -15 57t-26 50h311q-26 -53 -36 -110l-4 -93v-850
q0 -22 1.5 -41.5t4.5 -39t8 -40.5t12 -45q5 -15 6.5 -23t2.5 -9q4 -17 18 -42z" />
    <glyph glyph-name="H" unicode="H" horiz-adv-x="1306" 
d="M912 1078v112h-517v-112h517zM395 854v-650q0 -29 1 -53t4 -42q10 -58 39 -109h-315q15 22 25.5 48t15.5 57q3 17 4.5 43.5t1.5 55.5v1324q0 62 -6 97q-10 61 -41 105h317q-29 -45 -37.5 -95t-8.5 -107v-113h517v113v15q0 55 -7 82q-11 63 -39 105h315
q-14 -23 -22.5 -44.5t-15.5 -51.5q-1 -9 -2.5 -23t-2.5 -29t-2 -29.5t-1 -24.5v-1324q0 -34 1 -55.5t5 -39.5q5 -28 14.5 -55.5t23.5 -53.5h-313q30 42 38 93t8 111v650h-517z" />
    <glyph glyph-name="I" unicode="I" horiz-adv-x="565" 
d="M124 0q15 22 25.5 48t15.5 57q3 17 4.5 43.5t1.5 55.5v1324q0 62 -6 97q-10 61 -41 105h315q-28 -49 -36 -99.5t-8 -102.5v-1324q0 -29 1 -53t4 -42q10 -58 39 -109h-315z" />
    <glyph glyph-name="J" unicode="J" horiz-adv-x="1030" 
d="M974 1730q-26 -47 -36 -99l-5 -51q-3 -33 -3 -52v-660q0 -264 -134 -470q-61 -94 -142.5 -168.5t-185.5 -128.5q-193 -101 -407 -101v290l64 -22q29 -4 41 -4.5t25 -0.5q201 0 351 178q164 194 164 503v584v15v12q0 45 -5 70q-14 68 -41 105h314z" />
    <glyph glyph-name="K" unicode="K" horiz-adv-x="1200" 
d="M1184 1730q-18 -13 -37.5 -27t-39.5 -30l-81 -64l-107 -93l-368 -316l127 -264l187 -391l132 -275q16 -33 37.5 -69t45.5 -71q24 -34 47.5 -64.5t51.5 -65.5h-388q0 11 0.5 18t1.5 12l1 21q2 32 -2.5 61t-9.5 56q-5 28 -12.5 50t-17.5 43l-357 742v-799q0 -26 1.5 -50.5
t5.5 -47.5q6 -39 31 -106h-304q13 28 22 57t14 59q3 19 4.5 41.5t1.5 46.5v1324q0 26 -1.5 48t-3.5 39q-6 59 -37 115h304q-10 -25 -19 -54t-12 -51q-7 -41 -7 -97v-189l146 134l123 115q24 22 30 51q8 26 8 91h482z" />
    <glyph glyph-name="L" unicode="L" horiz-adv-x="1062" 
d="M1024 0h-900q15 22 25.5 48t15.5 57q3 17 4.5 43.5t1.5 55.5v1324q0 62 -6 97q-10 61 -41 105h333q-62 -110 -62 -202v-1305h427q89 0 202 63v-286z" />
    <glyph glyph-name="M" unicode="M" horiz-adv-x="1594" 
d="M1211 0q14 23 24.5 48t15.5 53q3 18 5.5 31.5t4 25t2 22.5t-0.5 24l-99 1287l-374 -310l-358 303l-99 -1280q-2 -24 2 -50.5t9 -52.5t15.5 -51t24.5 -50h-360q38 57 60 112t26 94l43 494q3 35 7.5 80t10.5 102q12 114 18.5 197.5t6.5 154.5q0 85 6.5 155t13.5 139
q0 62 -6 97q-10 61 -41 105h385q6 -21 9.5 -30.5t12.5 -26.5q11 -17 18 -25.5t19 -20.5l177 -168l192 166q43 37 66 105h389q-32 -44 -40 -93q-3 -23 -6 -49.5t-1 -59.5q2 -35 5.5 -72.5t5.5 -79.5t2.5 -77.5t2.5 -66.5l39 -528q5 -68 6 -138t10 -145l26 -215q0 -43 23 -94
q11 -23 28 -54t35 -58h-361z" />
    <glyph glyph-name="N" unicode="N" horiz-adv-x="1299" 
d="M903 561q0 16 -1.5 31t-7.5 31q-9 24 -25 49l-88 129l-64 88l-322 448v-1133q0 -29 1 -53t4 -42q10 -58 39 -109h-315q15 22 25.5 48t15.5 57q3 17 4.5 43.5t1.5 55.5v1324q0 62 -6 97q-10 61 -41 105h361q-12 -32 -12 -63v-22.5t1 -13.5q2 -9 8.5 -29t24.5 -47
q11 -17 29.5 -43t43.5 -61l78 -109l145 -202l101 -141v529v15v12q0 45 -5 70q-10 61 -41 105h315q-14 -24 -23 -48.5t-14 -50.5q-4 -24 -5.5 -50t-1.5 -53v-1470q0 -28 1 -52t4 -42q10 -58 39 -109h-315q15 20 25.5 46t15.5 58q3 19 4 43.5t1 55.5z" />
    <glyph glyph-name="O" unicode="O" horiz-adv-x="1546" 
d="M1480 872q0 -402 -195 -637q-193 -235 -528 -235q-315 0 -503 227q-187 227 -187 610q0 436 185 666t526 230q326 0 514 -227t188 -634zM1257 891q0 279 -127 455q-133 184 -367 184q-232 0 -359 -204q-58 -93 -87 -212t-29 -263q0 -265 120 -445q131 -194 355 -194
q237 0 372 207q122 186 122 472z" />
    <glyph glyph-name="P" unicode="P" horiz-adv-x="1152" 
d="M1040 1469q1 -27 -6 -57.5t-20 -59.5t-31 -55t-39 -44q-25 -21 -53 -36t-60 -22q-25 -5 -57 -5h-379v-986q0 -29 1 -53t4 -42q10 -58 39 -109h-315q15 22 25.5 48t15.5 57q3 17 4.5 43.5t1.5 55.5v1324q0 62 -6 97q-10 61 -41 105h650q50 0 110 -23q61 -23 93 -59
q33 -36 47 -85t16 -94zM815 1469q0 23 -16 40t-40 17h-364v-111h364q23 0 39.5 15.5t16.5 38.5z" />
    <glyph glyph-name="Q" unicode="Q" horiz-adv-x="1304" 
d="M1253 95l-196 -150l-122 124q-116 -83 -294 -83q-290 0 -434 233q-119 192 -119 500q0 244 67 476q73 255 195 402q139 169 312 169q163 0 297 -164q122 -150 191 -391q33 -118 49.5 -231.5t16.5 -231.5q0 -67 -7 -134t-23 -134q-8 -33 -16 -62.5t-18.5 -57.5
t-23.5 -56.5t-30 -59.5zM988 748q0 266 -99 523q-107 272 -241 272q-143 0 -243 -289q-45 -131 -67 -267.5t-22 -280.5q0 -101 20 -184t58 -152q91 -162 254 -162q13 0 22 0.5t15.5 1t12.5 2l14 3.5q17 4 34.5 11t33.5 14l-282 302l158 137l269 -266q14 33 26 72.5t20 87.5
t12.5 91t4.5 84z" />
    <glyph glyph-name="R" unicode="R" 
d="M815 1469q0 23 -16 40t-40 17h-364v-111h364q23 0 39.5 15.5t16.5 38.5zM704 1190l118 -312l109 -304l114 -318q12 -33 29 -67.5t37 -71.5q10 -19 28 -47t47 -70h-360q12 26 18.5 52.5t6.5 56.5q0 15 -0.5 30.5t-5.5 32.5l-8 31q-1 2 -3 7t-5 13l-32 87q-17 45 -30.5 80
t-23.5 64l-35 100l-46 125l-187 511h-80v-986q0 -29 1 -53t4 -42q10 -58 39 -109h-315q15 22 25.5 48t15.5 57q3 17 4.5 43.5t1.5 55.5v1324q0 62 -6 97q-10 61 -41 105h650q50 0 110 -23q61 -23 93 -59q33 -36 47 -85t16 -94q1 -27 -6 -57.5t-20 -59.5t-31 -55t-39 -44
q-25 -21 -53 -36t-60 -22q-25 -5 -57 -5h-70z" />
    <glyph glyph-name="S" unicode="S" horiz-adv-x="1144" 
d="M1096 498q0 -233 -161 -382q-155 -141 -384 -141q-55 0 -102 5.5t-88 15.5q-42 10 -85 24t-89 34q-33 15 -77 37.5t-99 53.5l183 254q53 -89 153 -140q49 -25 99.5 -38t104.5 -13q67 0 119 18.5t93 54.5q88 80 88 232q0 84 -38 169q-35 75 -97 144q-47 51 -132 126
q-38 33 -80.5 70t-87.5 79q-48 45 -82 83.5t-55 72.5q-29 45 -42.5 92t-13.5 95q0 80 25 140t74 103q88 76 229 76q102 0 177 -21q76 -21 163 -75l-145 -200q-35 23 -55 36.5t-27 17.5q-40 25 -84 25q-121 0 -121 -92q0 -59 107 -161q54 -51 109 -101t112 -101
q48 -45 83.5 -84.5t66.5 -78.5q71 -91 115 -198.5t44 -231.5z" />
    <glyph glyph-name="T" unicode="T" horiz-adv-x="1108" 
d="M1119 1770q0 -106 -85 -181q-84 -75 -191 -75h-185v-1310q0 -29 1 -53t4 -42q10 -58 39 -109h-315q15 22 25.5 48t15.5 57q3 19 4 43.5t1 55.5v1316h-210q-89 0 -202 -61v271h883q32 0 63.5 4t63.5 12l25 6q13 3 63 18z" />
    <glyph glyph-name="U" unicode="U" horiz-adv-x="1299" 
d="M1177 -21q-268 59 -536 291q-120 105 -220 227t-178 264q-155 279 -155 504q0 42 1.5 78t6.5 65q4 30 11.5 53.5t15 44.5t14.5 39.5t10 37.5q2 15 5.5 35t3.5 34v12q0 16 -3 28q0 10 -1 16.5t-7 21.5h368q-92 -99 -135 -180q-55 -103 -55 -217q0 -200 95 -407
q83 -183 224 -337q132 -145 262 -211v1150v15v12q0 45 -5 70q-10 61 -41 105h315q-14 -24 -23 -48.5t-14 -50.5q-4 -24 -5.5 -50t-1.5 -53v-1339q0 -29 1 -56t6 -52q4 -23 14.5 -48.5t26.5 -53.5z" />
    <glyph glyph-name="V" unicode="V" horiz-adv-x="1070" 
d="M1068 1730q-35 -42 -58 -107q-8 -23 -16 -48.5t-13 -54.5l-48 -248q-4 -20 -12 -58t-19 -93q-9 -47 -33.5 -165.5t-62.5 -311.5l-42 -210l-37 -178q-6 -28 -8.5 -42t-4.5 -27l-8 -90q0 -55 17 -97h-400q7 14 11.5 28t6.5 28q4 13 6 32.5t2 38.5q-1 28 -3 47.5t-4 34
t-4.5 25.5t-3.5 22q-10 64 -28 158t-42 219l-36 189l-31 161l-26 132l-81 405q-8 37 -17.5 68t-20.5 57q-11 25 -22.5 46t-27.5 39h358q-10 -17 -17 -37.5t-12 -43.5q-2 -12 -3 -26.5t-2.5 -28t-2 -25t-0.5 -18.5v-21t3 -23l4 -37l55 -284l90 -457q12 -61 22.5 -114.5
t18.5 -101.5q6 -32 11 -60.5t9 -53.5q11 85 57 320l91 467l59 284q5 21 6.5 44.5t1.5 49.5v29t-1 20q-2 16 -6 39t-10.5 42t-16.5 36h351z" />
    <glyph glyph-name="W" unicode="W" horiz-adv-x="1516" 
d="M1530 1730q-7 -8 -16 -20.5t-18 -27t-17.5 -30t-15.5 -30.5q-14 -28 -23 -52.5t-14 -49.5l-270 -1264l-11 -61l-3 -68q-2 -41 6 -72t19 -55h-360l13 46l4 55q2 20 -0.5 38.5t-5.5 35.5t-4.5 28t-3 20t-3 16.5t-4.5 16.5l-53 297l-54 -297l-14 -74l-4 -41q-1 -7 -1 -17.5
v-24.5q0 -31 3 -53.5t12 -45.5h-360q11 26 18.5 57t7.5 70v16.5t-1 11.5l-4 37l-4 36q-1 5 -2 11.5t-3 16.5l-254 1264q-9 47 -37 104q-14 29 -30.5 55.5t-36.5 50.5h374q-10 -17 -17 -37.5t-12 -43.5q-2 -12 -3 -26.5t-2.5 -28t-2 -25t-0.5 -18.5v-21t3 -23l4 -40l54 -295
l135 -766l122 591l-154 733h226q2 -22 3.5 -31t5.5 -23q6 -34 11 -66t8.5 -60t6.5 -50t4 -35l47 265h221l-162 -736l113 -590q2 23 6.5 49t9.5 56q6 30 17.5 79.5t25.5 119.5l95 464q29 141 44 216t17 86t3 20t2 16t1 17v24q0 20 -0.5 33t-1.5 20l-6 44q-3 23 -10.5 44
t-17.5 38h374z" />
    <glyph glyph-name="X" unicode="X" horiz-adv-x="1121" 
d="M734 0l13 44l3 55q1 18 -1 33t-5 31q-4 17 -7 30t-8 24q-3 5 -13 30t-27 70l-45 114q-15 38 -28.5 75t-26.5 72q-10 27 -17 47.5t-11 34.5q-5 -17 -12.5 -37.5t-15.5 -44.5q-11 -32 -25 -68t-31 -78q-16 -42 -26.5 -69.5t-16.5 -42.5l-42 -107q-8 -21 -14 -49.5t-6 -66.5
q0 -32 3 -54.5t12 -42.5h-362q49 54 86 120q7 12 14.5 27.5t16.5 34.5q13 27 18 39l281 706l-229 595q-10 37 -50 100q-38 61 -84 108h355l-11 -41l-3 -44q-2 -32 4.5 -60.5t17.5 -52.5l123 -336l124 336q5 21 11 54t4 61l-3 42l-12 41h357q-12 -13 -23 -25.5t-22 -26.5
q-5 -7 -15.5 -20t-24.5 -34q-17 -26 -29 -51.5t-22 -50.5l-228 -592l279 -709q20 -51 49 -100q20 -32 41 -62.5t46 -58.5h-362z" />
    <glyph glyph-name="Y" unicode="Y" horiz-adv-x="1043" 
d="M1073 1730q-23 -9 -51 -29t-72 -60q-27 -23 -51 -45t-54 -55l-116 -127l-99 -117v-1093q0 -34 0.5 -55.5t5.5 -45.5t13.5 -49t24.5 -54h-314q31 43 40 105q6 34 6 99v1081l-102 114l-72 79q-14 15 -23.5 25t-14.5 15q-27 30 -50 54t-44 45q-36 36 -70 64.5t-67 48.5h422
l-2 -29q-2 -29 10 -56.5t34 -52.5l86 -97l39 49l48 62q15 19 24 33.5t15 28.5q12 27 12 62h422z" />
    <glyph glyph-name="Z" unicode="Z" horiz-adv-x="1096" 
d="M1011 1730l-656 -1515h395q76 0 134 14q54 13 117 50v-279h-929v99l602 1419h-275q-29 0 -55.5 -5t-56.5 -14q-20 -6 -46 -17t-58 -28v276h828z" />
    <glyph glyph-name="bracketleft" unicode="[" horiz-adv-x="755" 
d="M734 -4h-614q14 20 25 47t16 57q3 19 4 43.5t1 54.5v1330v15v12q0 45 -5 70q-14 68 -41 105h614v-286q-31 19 -52 30.5t-38 17.5q-22 8 -50.5 11.5t-63.5 3.5h-139v-1288h139q73 0 131 23l73 40v-286z" />
    <glyph glyph-name="backslash" unicode="\" horiz-adv-x="1110" 
d="M1022 0h-235l-703 1730h239z" />
    <glyph glyph-name="bracketright" unicode="]" horiz-adv-x="755" 
d="M21 -2v286q34 -19 56 -30.5t42 -17.5q21 -7 49 -11t55 -4h141v1286h-141q-70 0 -112 -14q-29 -10 -90 -49v286h614q-33 -45 -40 -93q-4 -23 -5 -50t-1 -59v-1328q0 -29 1 -54t4 -43q10 -61 41 -105h-614z" />
    <glyph glyph-name="asciicircum" unicode="^" horiz-adv-x="877" 
d="M820 858h-218l-166 183l-161 -183h-218l307 347h151z" />
    <glyph glyph-name="underscore" unicode="_" horiz-adv-x="586" 
d="M586 -413h-586v207h586v-207z" />
    <glyph glyph-name="grave" unicode="`" horiz-adv-x="692" 
d="M584 1387h-212l-269 343h231z" />
    <glyph glyph-name="a" unicode="a" horiz-adv-x="1223" 
d="M782 356q15 22 25.5 48t15.5 57q3 19 4 43.5t1 55.5l1 151h-480q-12 -54 -15 -75q-6 -38 -6 -76v-25t1 -19q3 -20 3 -28q9 -81 38 -132h-324q16 23 28.5 48.5t20.5 53.5q9 30 14 54t5 48q0 120 34 250q28 109 87 249q124 294 340 480q229 196 449 196h30q5 0 16 -1t26 -4
q-13 -22 -22 -45.5t-14 -48.5q-4 -24 -5.5 -48.5t-1.5 -52.5v-975q0 -29 1 -52.5t4 -42.5q5 -28 14.5 -55t23.5 -54h-314zM1096 205q-21 -32 -36 -121q-2 -15 -5 -36t-6 -48h-957q-3 27 -5.5 48t-4.5 36q-15 89 -36 121h1050zM828 926v554q-58 -32 -115 -83.5t-112 -125.5
q-50 -66 -88.5 -133t-73.5 -149q-7 -15 -12.5 -31t-10.5 -32h412z" />
    <glyph glyph-name="b" unicode="b" horiz-adv-x="1236" 
d="M1192 942q0 -219 -173 -446q-81 -106 -183 -194t-232 -161q-249 -141 -480 -141q15 22 25.5 48t15.5 57q3 17 4.5 43.5t1.5 55.5v1324q0 62 -6 97q-10 61 -41 105h675q128 0 198 -41q92 -53 92 -173q0 -37 -9.5 -67t-30.5 -59q-38 -53 -117 -86q107 -28 181 -126
q79 -105 79 -236zM840 1472q0 25 -20 39q-12 7 -25.5 11t-31.5 4h-368v-116h368q34 0 57 17q20 18 20 45zM944 914q0 117 -82 199q-81 83 -202 83h-265v-882q55 12 110.5 38.5t121.5 74.5q67 49 122 103t98 114q97 136 97 270z" />
    <glyph glyph-name="c" unicode="c" 
d="M1140 -14q-140 34 -263.5 88t-240.5 132q-251 167 -392 396q-79 129 -117.5 267t-38.5 287q0 254 152 421q153 168 380 168q31 0 68 -1t61 -3l204 -11v-302q-37 24 -76 44t-71 31t-69.5 15t-80.5 4q-150 0 -242 -104q-91 -103 -91 -276q0 -241 152 -462q66 -94 149 -172
t186 -141q188 -113 330 -113v-268z" />
    <glyph glyph-name="d" unicode="d" horiz-adv-x="1293" 
d="M1205 1152q0 -278 -173 -547q-161 -249 -413 -416q-251 -167 -495 -189q31 48 41 111q6 36 6 97v1335q0 29 -1.5 55.5t-4.5 43.5q-5 31 -15.5 57t-25.5 48h595q220 0 353 -157t133 -438zM976 1154q0 90 -20.5 159.5t-64.5 118.5q-39 45 -91.5 66.5t-118.5 21.5h-286
v-1173q213 71 392 305q189 247 189 502z" />
    <glyph glyph-name="e" unicode="e" horiz-adv-x="1192" 
d="M1133 1128q-29 18 -48.5 28.5t-41.5 18.5t-50 11.5t-63 3.5h-535v-610h438q74 0 131 23l72 39v-286h-912q15 22 25.5 48t15.5 57q3 17 4.5 43.5t1.5 55.5v968q0 62 -6 97q-10 61 -41 105h912v-286q-28 17 -51.5 29.5t-43.5 19.5q-40 14 -108 14h-438v-92h738v-287zM171 0
q-3 27 -6 48t-5 36q-15 89 -36 121h912v-205h-865z" />
    <glyph glyph-name="f" unicode="f" horiz-adv-x="1192" 
d="M395 1190v-986q0 -32 3 -56.5t10 -47t19 -46.5t30 -54h-333q15 22 25.5 48t15.5 57q3 17 4.5 43.5t1.5 55.5v1324q0 62 -6 97q-10 61 -41 105h912v-286q-64 37 -90 47q-42 16 -113 16h-438v-92h738v-287q-29 18 -48.5 28.5t-41.5 18.5t-50 11.5t-63 3.5h-535z" />
    <glyph glyph-name="g" unicode="g" horiz-adv-x="1322" 
d="M1205 -28q-461 125 -781 457q-336 348 -336 769q0 248 152 394q145 138 380 138h398v-313q-177 105 -344 105q-148 0 -248 -89q-108 -98 -108 -263q0 -234 201 -501q184 -244 408 -343v736v15v12q0 44 -5 69q-5 30 -15 57t-26 50h311q-26 -53 -36 -110l-4 -93v-850
q0 -22 1.5 -41.5t4.5 -39t8 -40.5t12 -45q5 -15 6.5 -23t2.5 -9q4 -17 18 -42z" />
    <glyph glyph-name="h" unicode="h" horiz-adv-x="1306" 
d="M912 1078v112h-517v-112h517zM395 854v-650q0 -29 1 -53t4 -42q10 -58 39 -109h-315q15 22 25.5 48t15.5 57q3 17 4.5 43.5t1.5 55.5v1324q0 62 -6 97q-10 61 -41 105h317q-29 -45 -37.5 -95t-8.5 -107v-113h517v113v15q0 55 -7 82q-11 63 -39 105h315
q-14 -23 -22.5 -44.5t-15.5 -51.5q-1 -9 -2.5 -23t-2.5 -29t-2 -29.5t-1 -24.5v-1324q0 -34 1 -55.5t5 -39.5q5 -28 14.5 -55.5t23.5 -53.5h-313q30 42 38 93t8 111v650h-517z" />
    <glyph glyph-name="i" unicode="i" horiz-adv-x="557" 
d="M124 354q15 22 25.5 48t15.5 57q3 17 4.5 43.5t1.5 55.5v970q0 62 -6 97q-10 61 -41 105h315q-28 -49 -36 -99.5t-8 -102.5v-970q0 -29 1 -53t4 -42q10 -58 39 -109h-315zM171 0q-3 27 -6 48t-5 36q-15 89 -36 121h315q-21 -30 -36 -120q-2 -15 -5 -36t-6 -49h-221z" />
    <glyph glyph-name="j" unicode="j" horiz-adv-x="1030" 
d="M974 1730q-26 -47 -36 -99l-5 -51q-3 -33 -3 -52v-660q0 -264 -134 -470q-61 -94 -142.5 -168.5t-185.5 -128.5q-193 -101 -407 -101v290l64 -22q29 -4 41 -4.5t25 -0.5q201 0 351 178q164 194 164 503v584v15v12q0 45 -5 70q-14 68 -41 105h314z" />
    <glyph glyph-name="k" unicode="k" horiz-adv-x="1200" 
d="M1184 1730q-18 -13 -37.5 -27t-39.5 -30l-81 -64l-107 -93l-368 -316l127 -264l187 -391l132 -275q16 -33 37.5 -69t45.5 -71q24 -34 47.5 -64.5t51.5 -65.5h-388q0 11 0.5 18t1.5 12l1 21q2 32 -2.5 61t-9.5 56q-5 28 -12.5 50t-17.5 43l-357 742v-799q0 -26 1.5 -50.5
t5.5 -47.5q6 -39 31 -106h-304q13 28 22 57t14 59q3 19 4.5 41.5t1.5 46.5v1324q0 26 -1.5 48t-3.5 39q-6 59 -37 115h304q-10 -25 -19 -54t-12 -51q-7 -41 -7 -97v-189l146 134l123 115q24 22 30 51q8 26 8 91h482z" />
    <glyph glyph-name="l" unicode="l" horiz-adv-x="1062" 
d="M1024 0h-900q15 22 25.5 48t15.5 57q3 17 4.5 43.5t1.5 55.5v1324q0 62 -6 97q-10 61 -41 105h333q-62 -110 -62 -202v-1305h427q89 0 202 63v-286z" />
    <glyph glyph-name="m" unicode="m" horiz-adv-x="1594" 
d="M1211 0q14 23 24.5 48t15.5 53q3 18 5.5 31.5t4 25t2 22.5t-0.5 24l-99 1287l-374 -310l-358 303l-99 -1280q-2 -24 2 -50.5t9 -52.5t15.5 -51t24.5 -50h-360q38 57 60 112t26 94l43 494q3 35 7.5 80t10.5 102q12 114 18.5 197.5t6.5 154.5q0 85 6.5 155t13.5 139
q0 62 -6 97q-10 61 -41 105h385q6 -21 9.5 -30.5t12.5 -26.5q11 -17 18 -25.5t19 -20.5l177 -168l192 166q43 37 66 105h389q-32 -44 -40 -93q-3 -23 -6 -49.5t-1 -59.5q2 -35 5.5 -72.5t5.5 -79.5t2.5 -77.5t2.5 -66.5l39 -528q5 -68 6 -138t10 -145l26 -215q0 -43 23 -94
q11 -23 28 -54t35 -58h-361z" />
    <glyph glyph-name="n" unicode="n" horiz-adv-x="1299" 
d="M858 0q15 22 25.5 48t15.5 57q3 19 4 43.5t1 55.5v421l-509 712v-1133q0 -29 1 -53t4 -42q10 -58 39 -109h-315q15 22 25.5 48t15.5 57q3 17 4.5 43.5t1.5 55.5v1324q0 62 -6 97q-10 61 -41 105h361q-12 -32 -12 -63v-22.5t1 -13.5q2 -9 8.5 -29t24.5 -47
q11 -17 29.5 -43t43.5 -61l78 -109l145 -202l101 -141v529v15v12q0 45 -5 70q-10 61 -41 105h315q-14 -24 -23 -48.5t-14 -50.5q-4 -24 -5.5 -50t-1.5 -53v-1324q0 -29 1 -53t4 -42q10 -58 39 -109h-315z" />
    <glyph glyph-name="o" unicode="o" horiz-adv-x="1316" 
d="M1257 1041q0 -158 -44 -285.5t-128 -223.5t-191 -142.5t-250 -46.5q-136 0 -233 44q-98 44 -181 139t-126 212q-47 127 -47 275q0 175 41 306t122 225t188.5 139.5t252.5 45.5q140 0 245 -43.5t186 -136.5t123 -218.5t42 -289.5zM1069 1056q0 112 -25 187
q-12 38 -31.5 75.5t-48.5 74.5q-59 76 -137.5 118t-177.5 42t-176.5 -46t-134.5 -131q-50 -75 -72 -156q-21 -80 -21 -196q0 -110 22 -183q11 -37 29.5 -74t44.5 -74q57 -79 135.5 -123.5t172.5 -44.5q97 0 180 47t143 132q25 36 43.5 74.5t30.5 81t17.5 91t5.5 105.5zM97 0
q-5 54 -9 84q-14 91 -31 121h1200q-10 -15 -19.5 -45t-16.5 -75l-12 -85h-1112z" />
    <glyph glyph-name="p" unicode="p" horiz-adv-x="1152" 
d="M1040 1469q1 -27 -6 -57.5t-20 -59.5t-31 -55t-39 -44q-25 -21 -53 -36t-60 -22q-25 -5 -57 -5h-379v-986q0 -29 1 -53t4 -42q10 -58 39 -109h-315q15 22 25.5 48t15.5 57q3 17 4.5 43.5t1.5 55.5v1324q0 62 -6 97q-10 61 -41 105h650q50 0 110 -23q61 -23 93 -59
q33 -36 47 -85t16 -94zM815 1469q0 23 -16 40t-40 17h-364v-111h364q23 0 39.5 15.5t16.5 38.5z" />
    <glyph glyph-name="q" unicode="q" horiz-adv-x="1304" 
d="M1253 95l-196 -150l-122 124q-116 -83 -294 -83q-290 0 -434 233q-119 192 -119 500q0 244 67 476q73 255 195 402q139 169 312 169q163 0 297 -164q122 -150 191 -391q33 -118 49.5 -231.5t16.5 -231.5q0 -67 -7 -134t-23 -134q-8 -33 -16 -62.5t-18.5 -57.5
t-23.5 -56.5t-30 -59.5zM988 748q0 266 -99 523q-107 272 -241 272q-143 0 -243 -289q-45 -131 -67 -267.5t-22 -280.5q0 -101 20 -184t58 -152q91 -162 254 -162q13 0 22 0.5t15.5 1t12.5 2l14 3.5q17 4 34.5 11t33.5 14l-282 302l158 137l269 -266q14 33 26 72.5t20 87.5
t12.5 91t4.5 84z" />
    <glyph glyph-name="r" unicode="r" 
d="M815 1469q0 23 -16 40t-40 17h-364v-111h364q23 0 39.5 15.5t16.5 38.5zM704 1190l118 -312l109 -304l114 -318q12 -33 29 -67.5t37 -71.5q10 -19 28 -47t47 -70h-360q12 26 18.5 52.5t6.5 56.5q0 15 -0.5 30.5t-5.5 32.5l-8 31q-1 2 -3 7t-5 13l-32 87q-17 45 -30.5 80
t-23.5 64l-35 100l-46 125l-187 511h-80v-986q0 -29 1 -53t4 -42q10 -58 39 -109h-315q15 22 25.5 48t15.5 57q3 17 4.5 43.5t1.5 55.5v1324q0 62 -6 97q-10 61 -41 105h650q50 0 110 -23q61 -23 93 -59q33 -36 47 -85t16 -94q1 -27 -6 -57.5t-20 -59.5t-31 -55t-39 -44
q-25 -21 -53 -36t-60 -22q-25 -5 -57 -5h-70z" />
    <glyph glyph-name="s" unicode="s" horiz-adv-x="1198" 
d="M1085 1484q-22 15 -41 25t-41 19q-30 13 -76 13q-59 0 -93 -49q-31 -44 -31 -98q0 -42 8.5 -95t25.5 -119l66 -269q17 -67 25.5 -135.5t8.5 -129.5q0 -295 -195 -485q-195 -189 -483 -189q-3 0 -15 1t-33 3q-42 3 -67 3h-14h-16h-14h-13h-31.5t-23.5 1v281
q42 -19 71.5 -30t56 -17t55 -8t67.5 -2q94 -2 168.5 33t130.5 104q102 126 102 319q0 125 -32 261l-62 260q-17 69 -26 125.5t-9 101.5q0 142 96 241q104 107 269 107h36t44 -4l86 -10v-258z" />
    <glyph glyph-name="t" unicode="t" horiz-adv-x="1108" 
d="M1119 1770q0 -106 -85 -181q-84 -75 -191 -75h-185v-1310q0 -29 1 -53t4 -42q10 -58 39 -109h-315q15 22 25.5 48t15.5 57q3 19 4 43.5t1 55.5v1316h-210q-89 0 -202 -61v271h883q32 0 63.5 4t63.5 12l25 6q13 3 63 18z" />
    <glyph glyph-name="u" unicode="u" horiz-adv-x="1299" 
d="M831 392q-103 17 -184 42.5t-141 57.5q-164 89 -263 269q-72 130 -115 284q-38 137 -38 220q0 85 9 146t26 96q12 25 21.5 61t9.5 84v12q0 16 -3 28q0 10 -1 16.5t-7 21.5h368q-92 -99 -135 -180q-57 -107 -57 -217q0 -197 97 -407q74 -162 215 -248q115 -70 271 -88v938
v15v12q0 45 -5 70q-10 61 -41 105h315q-14 -24 -23 -48.5t-14 -50.5q-4 -24 -5.5 -50t-1.5 -53v-982q0 -30 1.5 -57t5.5 -51q9 -47 41 -102zM136 0q-3 27 -5.5 48t-4.5 36q-15 89 -36 121h1087q-10 -15 -19.5 -45t-15.5 -76l-11 -84h-995z" />
    <glyph glyph-name="v" unicode="v" horiz-adv-x="1070" 
d="M1068 1730q-35 -42 -58 -107q-8 -23 -16 -48.5t-13 -54.5l-48 -248q-4 -20 -12 -58t-19 -93q-9 -47 -33.5 -165.5t-62.5 -311.5l-42 -210l-37 -178q-6 -28 -8.5 -42t-4.5 -27l-8 -90q0 -55 17 -97h-400q7 14 11.5 28t6.5 28q4 13 6 32.5t2 38.5q-1 28 -3 47.5t-4 34
t-4.5 25.5t-3.5 22q-10 64 -28 158t-42 219l-36 189l-31 161l-26 132l-81 405q-8 37 -17.5 68t-20.5 57q-11 25 -22.5 46t-27.5 39h358q-10 -17 -17 -37.5t-12 -43.5q-2 -12 -3 -26.5t-2.5 -28t-2 -25t-0.5 -18.5v-21t3 -23l4 -37l55 -284l90 -457q12 -61 22.5 -114.5
t18.5 -101.5q6 -32 11 -60.5t9 -53.5q11 85 57 320l91 467l59 284q5 21 6.5 44.5t1.5 49.5v29t-1 20q-2 16 -6 39t-10.5 42t-16.5 36h351z" />
    <glyph glyph-name="w" unicode="w" horiz-adv-x="1516" 
d="M1530 1730q-7 -8 -16 -20.5t-18 -27t-17.5 -30t-15.5 -30.5q-14 -28 -23 -52.5t-14 -49.5l-270 -1264l-11 -61l-3 -68q-2 -41 6 -72t19 -55h-360l13 46l4 55q2 20 -0.5 38.5t-5.5 35.5t-4.5 28t-3 20t-3 16.5t-4.5 16.5l-53 297l-54 -297l-14 -74l-4 -41q-1 -7 -1 -17.5
v-24.5q0 -31 3 -53.5t12 -45.5h-360q11 26 18.5 57t7.5 70v16.5t-1 11.5l-4 37l-4 36q-1 5 -2 11.5t-3 16.5l-254 1264q-9 47 -37 104q-14 29 -30.5 55.5t-36.5 50.5h374q-10 -17 -17 -37.5t-12 -43.5q-2 -12 -3 -26.5t-2.5 -28t-2 -25t-0.5 -18.5v-21t3 -23l4 -40l54 -295
l135 -766l122 591l-154 733h226q2 -22 3.5 -31t5.5 -23q6 -34 11 -66t8.5 -60t6.5 -50t4 -35l47 265h221l-162 -736l113 -590q2 23 6.5 49t9.5 56q6 30 17.5 79.5t25.5 119.5l95 464q29 141 44 216t17 86t3 20t2 16t1 17v24q0 20 -0.5 33t-1.5 20l-6 44q-3 23 -10.5 44
t-17.5 38h374z" />
    <glyph glyph-name="x" unicode="x" horiz-adv-x="1121" 
d="M734 0l13 44l3 55q1 18 -1 33t-5 31q-4 17 -7 30t-8 24q-3 5 -13 30t-27 70l-45 114q-15 38 -28.5 75t-26.5 72q-10 27 -17 47.5t-11 34.5q-5 -17 -12.5 -37.5t-15.5 -44.5q-11 -32 -25 -68t-31 -78q-16 -42 -26.5 -69.5t-16.5 -42.5l-42 -107q-8 -21 -14 -49.5t-6 -66.5
q0 -32 3 -54.5t12 -42.5h-362q49 54 86 120q7 12 14.5 27.5t16.5 34.5q13 27 18 39l281 706l-229 595q-10 37 -50 100q-38 61 -84 108h355l-11 -41l-3 -44q-2 -32 4.5 -60.5t17.5 -52.5l123 -336l124 336q5 21 11 54t4 61l-3 42l-12 41h357q-12 -13 -23 -25.5t-22 -26.5
q-5 -7 -15.5 -20t-24.5 -34q-17 -26 -29 -51.5t-22 -50.5l-228 -592l279 -709q20 -51 49 -100q20 -32 41 -62.5t46 -58.5h-362z" />
    <glyph glyph-name="y" unicode="y" horiz-adv-x="1043" 
d="M1073 1730q-23 -9 -51 -29t-72 -60q-27 -23 -51 -45t-54 -55l-116 -127l-99 -117v-1093q0 -34 0.5 -55.5t5.5 -45.5t13.5 -49t24.5 -54h-314q31 43 40 105q6 34 6 99v1081l-102 114l-72 79q-14 15 -23.5 25t-14.5 15q-27 30 -50 54t-44 45q-36 36 -70 64.5t-67 48.5h422
l-2 -29q-2 -29 10 -56.5t34 -52.5l86 -97l39 49l48 62q15 19 24 33.5t15 28.5q12 27 12 62h422z" />
    <glyph glyph-name="z" unicode="z" horiz-adv-x="1096" 
d="M1011 1730l-656 -1515h395q76 0 134 14q54 13 117 50v-279h-929v99l602 1419h-275q-29 0 -55.5 -5t-56.5 -14q-20 -6 -46 -17t-58 -28v276h828z" />
    <glyph glyph-name="braceleft" unicode="{" horiz-adv-x="667" 
d="M321 0q-51 0 -85 8.5t-62 28.5q-29 21 -44.5 52t-13.5 73l6 130l16 194l7 134q4 69 -11.5 128.5t-49.5 117.5q15 27 26 54t19 61q16 61 16 129q-5 57 -9.5 119t-4.5 116q0 69 -5 120t-10 104q0 82 55 122q28 20 65 29.5t85 9.5h335q-9 -20 -17 -43.5t-16 -60.5
q-8 -32 -11 -57.5t-3 -42.5h-173q-18 0 -33.5 -0.5t-21.5 -3.5q-32 -6 -32 -40q2 -18 3.5 -42t2.5 -50.5t2 -53.5t3 -51l12 -196q2 -38 -3 -73.5t-13 -67.5q-7 -31 -14.5 -52.5t-15.5 -29.5q12 -16 29 -85q8 -34 12.5 -70.5t4.5 -69.5q-3 -18 -4.5 -40.5t-2.5 -48
t-2.5 -52.5t-2.5 -53l-11 -197q-1 -27 16 -37q20 -7 71 -7h173q0 -44 13 -100q7 -31 14.5 -56.5t19.5 -49.5h-335z" />
    <glyph glyph-name="bar" unicode="|" horiz-adv-x="565" 
d="M397 -116h-226v1962h226v-1962z" />
    <glyph glyph-name="braceright" unicode="}" horiz-adv-x="667" 
d="M584 866q-33 -54 -48 -115t-15 -131q0 -25 5 -83t11 -152l14 -223q3 -42 -11 -72.5t-41.5 -50.5t-66 -29.5t-85.5 -9.5h-336q8 20 16 44t18 71q12 49 12 91h174h28q25 0 42 7.5t17 36.5q-2 18 -3.5 41.5t-2.5 50t-2.5 53.5t-2.5 51l-11 195q-2 39 2.5 75t12.5 68
q17 66 30 82q-13 14 -29 82q-16 67 -16 141q2 18 3.5 41t2.5 49t2 53t3 52l11 198q1 25 -18 35q-11 4 -28 6.5t-41 2.5h-174q0 25 -2.5 44.5t-9.5 53.5q-8 31 -15.5 57t-18.5 49h336q93 0 146 -36q58 -40 58 -125q0 -37 -3 -73t-5 -58q-2 -19 -2 -37.5t-2 -38.5l-11 -118
l-7 -134q-2 -34 3 -66t13 -63q8 -32 18.5 -60t28.5 -55z" />
    <glyph glyph-name="asciitilde" unicode="~" horiz-adv-x="761" 
d="M692 849q-68 65 -152 65q-59 0 -130 -20q-68 -19 -120 -31t-69 -12q-96 0 -152 38v240q68 -65 152 -65q25 0 72 11t118 31q36 11 68 15.5t61 4.5q100 0 152 -37v-240z" />
    <glyph glyph-name="c141" horiz-adv-x="2191" 
 />
    <glyph glyph-name="c142" horiz-adv-x="1509" 
 />
    <glyph glyph-name="c143" horiz-adv-x="1694" 
 />
    <glyph glyph-name="c144" horiz-adv-x="1100" 
 />
    <glyph glyph-name="exclamdown" unicode="&#xa1;" horiz-adv-x="565" 
d="M393 1509h-225v221h225v-221zM124 0q5 81 8 166.5t6 163.5l20 468q2 57 1.5 112.5t1.5 111.5l6 236q2 63 3 106.5t1 68.5h222v-112.5t2 -102.5l6 -218q3 -122 3 -201q0 -25 3.5 -95.5t10.5 -187.5q4 -58 5.5 -107.5t1.5 -91.5q0 -93 4.5 -169t9.5 -148h-315z" />
    <glyph glyph-name="cent" unicode="&#xa2;" horiz-adv-x="782" 
d="M766 381q-18 3 -33.5 7t-17.5 4q-23 3 -51 16v-126h-225v228q-87 54 -153.5 116.5t-117.5 140.5q-111 172 -111 375q0 135 63 231q64 97 176 134v223h225v-208l125 -6v-249q-51 34 -97 49q-23 8 -47 10.5t-50 2.5q-191 0 -191 -196q0 -148 95 -282q79 -110 209 -184
q116 -67 201 -67v-219z" />
    <glyph glyph-name="sterling" unicode="&#xa3;" horiz-adv-x="1011" 
d="M810 1398q-40 49 -77 74q-67 46 -151 46q-101 0 -149 -92q-21 -41 -30.5 -102.5t-9.5 -146.5v-40h473v-214h-473v-53h473v-214h-473v-433h473v-223h-702v1219q0 121 26 213.5t80 161.5q106 136 298 136q112 0 187 -22q43 -12 82.5 -30t87.5 -51z" />
    <glyph glyph-name="currency" unicode="&#xa4;" horiz-adv-x="986" 
d="M635 856q0 55 -42 99q-40 43 -100 43q-31 0 -55 -10.5t-45 -31.5q-42 -44 -42 -100q0 -58 42 -100t100 -42t100 42t42 100zM781 1297l154 -153l-136 -134q15 -30 25.5 -71t10.5 -83q0 -45 -8.5 -80.5t-27.5 -72.5l135 -134l-152 -153l-136 133q-38 -17 -73 -26t-80 -9
q-87 0 -154 36l-134 -134l-152 152l134 134q-10 18 -16 36.5t-11 38.5t-7.5 39.5t-2.5 39.5q0 84 37 154l-135 135l154 152l133 -135q17 9 31 13.5t43 12.5q19 5 38.5 8t41.5 3q83 0 153 -37z" />
    <glyph glyph-name="yen" unicode="&#xa5;" horiz-adv-x="1043" 
d="M1073 1730q-23 -9 -51 -29t-72 -60q-27 -23 -51 -45t-54 -55l-84 -93l-131 -151v-160h236v-214h-236v-57h236v-215h-236v-447q0 -34 0.5 -55.5t5.5 -45.5t13.5 -49t24.5 -54h-314q31 43 40 105q6 34 6 99v447h-238v215h238v57h-238v214h238v148l-102 114l-72 79
q-14 15 -23.5 25t-14.5 15q-27 30 -50 54t-44 45q-36 36 -70 64.5t-67 48.5h422l-2 -29q-2 -29 10 -56.5t34 -52.5l86 -97l39 49l48 62q15 19 24 33.5t15 28.5q12 27 12 62h422z" />
    <glyph glyph-name="brokenbar" unicode="&#xa6;" horiz-adv-x="565" 
d="M397 1102h-226v744h226v-744zM397 -116h-226v745h226v-745z" />
    <glyph glyph-name="section" unicode="&#xa7;" 
d="M1112 1497q-20 15 -38 23.5t-36.5 13t-38.5 6t-44 1.5q-61 0 -95 -49q-29 -43 -29 -98q0 -42 8.5 -91.5t25.5 -119.5l66 -272q17 -69 25.5 -136.5t8.5 -128.5q0 -295 -196 -485q-195 -189 -483 -189q-19 0 -46.5 0.5t-65.5 6.5q-28 2 -52.5 5.5t-60.5 13.5v263
q32 -15 52 -23.5t40 -16.5q26 -9 44.5 -13t29.5 -4q121 0 146 52q11 23 16.5 82.5t5.5 162.5q0 38 -2.5 70.5t-7.5 61.5q-5 32 -11.5 67.5t-17.5 75.5l-45 170q-10 38 -19.5 82t-15.5 80q-11 64 -11 141q0 139 96 240q103 108 269 108h5q46 72 123 114q82 45 188 45
q24 0 44 -1t36 -3l86 -10v-245zM711 660q0 61 -8 122.5t-24 125.5q-8 32 -15.5 63t-15.5 63q-9 36 -17 66t-14 54q-17 66 -25 119t-8 95q-33 -19 -52 -58q-17 -36 -17 -76q0 -41 8.5 -93t24.5 -117l67 -273q17 -70 26.5 -135.5t6.5 -128.5l-4 -92q33 58 50 123.5t17 141.5z
" />
    <glyph glyph-name="dieresis" unicode="&#xa8;" horiz-adv-x="692" 
d="M646 1509h-221v221h221v-221zM267 1509h-221v221h221v-221z" />
    <glyph glyph-name="copyright" unicode="&#xa9;" horiz-adv-x="1514" 
d="M1444 1043q0 -284 -201 -485q-203 -203 -486 -203q-284 0 -486 202t-202 486t202 485q202 202 486 202q283 0 485 -202t202 -485zM1007 817q-120 0 -238 100q-134 113 -134 250q0 48 28 73t73 25q37 0 75 -13q18 -6 45.5 -19.5t57.5 -30.5v307l-101 5l-94 4
q-75 3 -135.5 -23.5t-106.5 -77.5q-92 -101 -92 -242q0 -238 184 -413q85 -79 192.5 -135t245.5 -89v279z" />
    <glyph glyph-name="guillemotleft" unicode="&#xab;" horiz-adv-x="923" 
d="M845 519l-347 224v152l347 222v-208l-134 -92l134 -92v-206zM446 519l-347 224v152l347 222v-208l-135 -92l135 -92v-206z" />
    <glyph glyph-name="minus" unicode="&#xad;" horiz-adv-x="576" 
d="M413 648h-253v222h253v-222z" />
    <glyph glyph-name="registered" unicode="&#xae;" horiz-adv-x="1514" 
d="M1444 1043q0 -284 -201 -485q-203 -203 -486 -203q-284 0 -486 202t-202 486t202 485q202 202 486 202q283 0 485 -202t202 -485zM1140 607l-39 64l-33 67l-59 163l-86 225l54 72q23 31 41 54.5t25 34.5q11 16 18 32t13 33q5 16 9 33t4 30q0 45 -29 74t-72 29h-536
q7 -8 11.5 -15.5t7 -18t3.5 -26.5t1 -41v-709q0 -18 -1.5 -33t-3.5 -28q-8 -25 -18 -40h244q-14 25 -17 50q-5 13 -5.5 24t-0.5 27v129l105 128l44 -105q15 -37 28 -72t27 -69q3 -9 5.5 -20t4 -20t2 -15l0.5 -6q-2 -2 -5 -23q-1 -19 -7 -28h265zM843 1333q-1 -5 -3 -9.5
t-4 -8.5l-16 -25l-149 -194v254h139q33 0 33 -17z" />
    <glyph glyph-name="macron" unicode="&#xaf;" horiz-adv-x="792" 
d="M658 1546h-624l86 184h624z" />
    <glyph glyph-name="degree" unicode="&#xb0;" horiz-adv-x="605" 
d="M513 1352q0 -87 -63 -148q-64 -62 -147 -62q-88 0 -150 62q-61 62 -61 148t62 148t149 62q85 0 147 -61q63 -62 63 -149zM370 1352q0 13 -5.5 24.5t-14.5 21.5q-20 21 -45 21q-13 0 -25.5 -5.5t-22.5 -14.5t-16 -21t-6 -26q0 -27 20 -47t48 -20q27 0 47 20
q9 10 14.5 21.5t5.5 25.5z" />
    <glyph glyph-name="acute" unicode="&#xb4;" horiz-adv-x="692" 
d="M593 1730l-267 -343h-213l249 343h231z" />
    <glyph glyph-name="paragraph" unicode="&#xb6;" horiz-adv-x="1150" 
d="M1082 1730q-32 -47 -39 -91q-7 -41 -7 -111v-1532h-214v1530h-79v-1530h-217v782l-387 570q-38 56 -57 110t-19 111q0 81 55 121t149 40h815zM526 1153v373h-120q-46 0 -62 -9q-14 -6 -14 -35q0 -15 3.5 -29t11.5 -31q7 -15 15.5 -28.5t17.5 -27.5z" />
    <glyph glyph-name="periodcentered" unicode="&#xb7;" horiz-adv-x="565" 
d="M393 685h-222v268h222v-268z" />
    <glyph glyph-name="cedilla" unicode="&#xb8;" horiz-adv-x="692" 
d="M582 -259q0 -92 -72 -147q-73 -56 -166 -56q-12 0 -32 3t-45 8q-46 10 -67 22l42 143q23 -15 50 -22q13 -3 25.5 -5.5t26.5 -2.5q31 0 53 16q10 8 15.5 18t5.5 26q0 60 -79 60q-18 0 -39 -2.5t-44 -7.5v223h125v-97q8 0 16 2h13q69 0 120 -52q52 -52 52 -129z" />
    <glyph glyph-name="guillemotright" unicode="&#xbb;" horiz-adv-x="923" 
d="M824 743l-347 -224v206l135 92l-135 92v208l347 -222v-152zM425 743l-347 -224v206l134 92l-134 92v208l347 -222v-152z" />
    <glyph glyph-name="questiondown" unicode="&#xbf;" horiz-adv-x="1142" 
d="M871 1613q0 -48 -35 -83t-82 -35q-50 0 -84 34t-34 84q0 48 34 81q34 34 84 34q24 0 45.5 -9t37.5 -24.5t25 -36.5t9 -45zM1056 307q-60 -133 -168 -211q-132 -96 -324 -96q-180 0 -313 113q-146 122 -146 318q0 56 7 103t21 86q11 35 30 67.5t45 64.5q19 23 45 49.5
t64 64.5l229 221q84 82 93 174q3 33 3 170h223v-171q0 -100 -51 -181q-17 -28 -53 -70.5t-95 -102.5q-60 -62 -104.5 -106t-70.5 -73q-42 -45 -71 -81t-47 -64q-42 -66 -42 -125q0 -45 17 -83t55 -76q71 -71 172 -71q80 0 154 48q83 53 128 143z" />
    <glyph glyph-name="Adieresis" unicode="&#xc4;" horiz-adv-x="1223" 
d="M1066 1899h-221v221h221v-221zM687 1899h-221v221h221v-221zM782 0q15 22 25.5 48t15.5 57q3 19 4 43.5t1 55.5v322h-502l-1 -99v-27.5t-1 -31.5t-1 -27.5v-15.5q0 -112 9 -194t38 -131h-324q33 48 49 101q8 29 12 52t4 51v260q0 301 124 595t340 480q229 196 449 196h30
q5 0 16 -1t26 -4q-13 -22 -22 -45.5t-14 -48.5q-4 -24 -5.5 -48.5t-1.5 -52.5v-1331q0 -29 1 -53t4 -42q5 -28 14.5 -55.5t23.5 -53.5h-314zM828 740v740q-58 -32 -115 -83.5t-112 -125.5q-47 -62 -86.5 -132.5t-73.5 -149.5q-59 -135 -81 -249h468z" />
    <glyph glyph-name="Odieresis" unicode="&#xd6;" horiz-adv-x="1546" 
d="M1065 1901h-221v221h221v-221zM686 1901h-221v221h221v-221zM1480 872q0 -402 -195 -637q-193 -235 -528 -235q-315 0 -503 227q-187 227 -187 610q0 436 185 666t526 230q326 0 514 -227t188 -634zM1257 891q0 279 -127 455q-133 184 -367 184q-232 0 -359 -204
q-58 -93 -87 -212t-29 -263q0 -265 120 -445q131 -194 355 -194q237 0 372 207q122 186 122 472z" />
    <glyph glyph-name="Udieresis" unicode="&#xdc;" horiz-adv-x="1299" 
d="M986 1894h-221v221h221v-221zM607 1894h-221v221h221v-221zM1177 -21q-268 59 -536 291q-120 105 -220 227t-178 264q-155 279 -155 504q0 42 1.5 78t6.5 65q4 30 11.5 53.5t15 44.5t14.5 39.5t10 37.5q2 15 5.5 35t3.5 34v12q0 16 -3 28q0 10 -1 16.5t-7 21.5h368
q-92 -99 -135 -180q-55 -103 -55 -217q0 -200 95 -407q83 -183 224 -337q132 -145 262 -211v1150v15v12q0 45 -5 70q-10 61 -41 105h315q-14 -24 -23 -48.5t-14 -50.5q-4 -24 -5.5 -50t-1.5 -53v-1339q0 -29 1 -56t6 -52q4 -23 14.5 -48.5t26.5 -53.5z" />
    <glyph glyph-name="germandbls" unicode="&#xdf;" 
d="M1112 1497q-20 15 -38 23.5t-36.5 13t-38.5 6t-44 1.5q-61 0 -95 -49q-29 -43 -29 -98q0 -42 8.5 -91.5t25.5 -119.5l66 -272q17 -69 25.5 -136.5t8.5 -128.5q0 -295 -196 -485q-195 -189 -483 -189q-19 0 -46.5 0.5t-65.5 6.5q-28 2 -52.5 5.5t-60.5 13.5v263
q32 -15 52 -23.5t40 -16.5q26 -9 44.5 -13t29.5 -4q121 0 146 52q11 23 16.5 82.5t5.5 162.5q0 38 -2.5 70.5t-7.5 61.5q-5 32 -11.5 67.5t-17.5 75.5l-45 170q-10 38 -19.5 82t-15.5 80q-11 64 -11 141q0 139 96 240q103 108 269 108h5q46 72 123 114q82 45 188 45
q24 0 44 -1t36 -3l86 -10v-245zM711 660q0 61 -8 122.5t-24 125.5q-8 32 -15.5 63t-15.5 63q-9 36 -17 66t-14 54q-17 66 -25 119t-8 95q-33 -19 -52 -58q-17 -36 -17 -76q0 -41 8.5 -93t24.5 -117l67 -273q17 -70 26.5 -135.5t6.5 -128.5l-4 -92q33 58 50 123.5t17 141.5z
" />
    <glyph glyph-name="adieresis" unicode="&#xe4;" horiz-adv-x="1223" 
d="M1067 1891h-221v221h221v-221zM688 1891h-221v221h221v-221zM782 356q15 22 25.5 48t15.5 57q3 19 4 43.5t1 55.5l1 151h-480q-12 -54 -15 -75q-6 -38 -6 -76v-25t1 -19q3 -20 3 -28q9 -81 38 -132h-324q16 23 28.5 48.5t20.5 53.5q9 30 14 54t5 48q0 120 34 250
q28 109 87 249q124 294 340 480q229 196 449 196h30q5 0 16 -1t26 -4q-13 -22 -22 -45.5t-14 -48.5q-4 -24 -5.5 -48.5t-1.5 -52.5v-975q0 -29 1 -52.5t4 -42.5q5 -28 14.5 -55t23.5 -54h-314zM1096 205q-21 -32 -36 -121q-2 -15 -5 -36t-6 -48h-957q-3 27 -5.5 48t-4.5 36
q-15 89 -36 121h1050zM828 926v554q-58 -32 -115 -83.5t-112 -125.5q-50 -66 -88.5 -133t-73.5 -149q-7 -15 -12.5 -31t-10.5 -32h412z" />
    <glyph glyph-name="egrave" unicode="&#xe8;" horiz-adv-x="1509" 
d="M1011 1730l-656 -1515h809q38 0 70.5 3.5t60.5 10.5q27 6 58.5 19t61.5 31v-279h-1343v99l602 1419h-275q-29 0 -55.5 -5t-56.5 -14q-20 -6 -46 -17t-58 -28v276h828zM1101 354q15 22 25.5 48t15.5 57q3 19 4 43.5t1 55.5v970v15v12q0 45 -5 70q-10 61 -41 105h315
q-14 -24 -23 -48.5t-14 -50.5q-4 -24 -5.5 -50t-1.5 -53v-970q0 -29 1 -53t4 -42q10 -58 39 -109h-315z" />
    <glyph glyph-name="eacute" unicode="&#xe9;" horiz-adv-x="2191" 
d="M1011 1730l-656 -1515h1398q76 0 134 14q54 13 117 50v-279h-1932v99l602 1419h-275q-29 0 -55.5 -5t-56.5 -14q-20 -6 -46 -17t-58 -28v276h828zM2103 1128q-29 18 -48.5 28.5t-41.5 18.5t-50 11.5t-63 3.5h-535v-610h438q74 0 131 23l72 39v-286h-911q31 46 40 105
q6 34 6 99v968v15q0 26 -2 46.5t-4 35.5q-5 29 -14.5 55.5t-25.5 49.5h911v-286q-28 17 -51 29.5t-43 19.5q-39 14 -109 14h-438v-92h738v-287z" />
    <glyph glyph-name="ecircumflex" unicode="&#xea;" horiz-adv-x="1509" 
 />
    <glyph glyph-name="ograve" unicode="&#xf2;" horiz-adv-x="1100" 
d="M1024 0h-900q15 22 25.5 48t15.5 57q3 17 4.5 43.5t1.5 55.5v1324q0 62 -6 97q-10 61 -41 105h333q-62 -110 -62 -202v-1305h427q89 0 202 63v-286zM710 354q31 46 40 105q6 34 6 99v970v15q0 26 -2 46.5t-4 35.5q-5 29 -14.5 55.5t-25.5 49.5h314q-13 -25 -22.5 -49.5
t-13.5 -49.5q-4 -26 -6 -51.5t-2 -51.5v-970q0 -34 1.5 -55.5t4.5 -39.5q5 -29 14.5 -56t23.5 -53h-314z" />
    <glyph glyph-name="oacute" unicode="&#xf3;" horiz-adv-x="1694" 
d="M1495 0h-1371q15 22 25.5 48t15.5 57q3 17 4.5 43.5t1.5 55.5v1324q0 62 -6 97q-10 61 -41 105h333q-62 -110 -62 -202v-1305h898q89 0 202 63v-286zM1593 1128q-28 17 -50.5 29t-39.5 18q-22 8 -50.5 11.5t-63.5 3.5h-534v-610h438q38 0 71 4.5t59 18.5l73 39v-286h-912
q15 22 25.5 48t15.5 57q3 19 4 43.5t1 55.5v968v15v12q0 45 -5 70q-10 61 -41 105h912v-286q-28 17 -51.5 29.5t-43.5 19.5q-40 14 -108 14h-438v-92h738v-287z" />
    <glyph glyph-name="ocircumflex" unicode="&#xf4;" horiz-adv-x="1773" 
d="M1675 0h-1551q15 22 25.5 48t15.5 57q3 17 4.5 43.5t1.5 55.5v1324q0 62 -6 97q-10 61 -41 105h333q-62 -110 -62 -202v-1305h1078q91 0 202 63v-286zM1684 1730q-22 -9 -50 -30t-72 -59q-23 -21 -50.5 -45t-55.5 -55l-115 -127l-75 -87l-24 -30v-737q0 -29 1 -52.5
t4 -42.5q11 -57 39 -109h-315q15 22 25.5 48t15.5 57q3 17 4.5 43.5t1.5 55.5v725l-103 114l-57 63q-21 23 -34 37t-19 19l-38 42l-55 57q-35 36 -69.5 64t-68.5 49h423l-3 -29q0 -59 44 -109l86 -97l40 49l47 62q14 18 24 33t16 29q5 13 8.5 29t3.5 33h421z" />
    <glyph glyph-name="odieresis" unicode="&#xf6;" horiz-adv-x="1316" 
d="M951 1897h-221v221h221v-221zM572 1897h-221v221h221v-221zM1257 1041q0 -158 -44 -285.5t-128 -223.5t-191 -142.5t-250 -46.5q-136 0 -233 44q-98 44 -181 139t-126 212q-47 127 -47 275q0 175 41 306t122 225t188.5 139.5t252.5 45.5q140 0 245 -43.5t186 -136.5
t123 -218.5t42 -289.5zM1069 1056q0 112 -25 187q-12 38 -31.5 75.5t-48.5 74.5q-59 76 -137.5 118t-177.5 42t-176.5 -46t-134.5 -131q-50 -75 -72 -156q-21 -80 -21 -196q0 -110 22 -183q11 -37 29.5 -74t44.5 -74q57 -79 135.5 -123.5t172.5 -44.5q97 0 180 47t143 132
q25 36 43.5 74.5t30.5 81t17.5 91t5.5 105.5zM97 0q-5 54 -9 84q-14 91 -31 121h1200q-10 -15 -19.5 -45t-16.5 -75l-12 -85h-1112z" />
    <glyph glyph-name="udieresis" unicode="&#xfc;" horiz-adv-x="1299" 
d="M968 1869h-221v221h221v-221zM589 1869h-221v221h221v-221zM831 392q-103 17 -184 42.5t-141 57.5q-164 89 -263 269q-72 130 -115 284q-38 137 -38 220q0 85 9 146t26 96q12 25 21.5 61t9.5 84v12q0 16 -3 28q0 10 -1 16.5t-7 21.5h368q-92 -99 -135 -180
q-57 -107 -57 -217q0 -197 97 -407q74 -162 215 -248q115 -70 271 -88v938v15v12q0 45 -5 70q-10 61 -41 105h315q-14 -24 -23 -48.5t-14 -50.5q-4 -24 -5.5 -50t-1.5 -53v-982q0 -30 1.5 -57t5.5 -51q9 -47 41 -102zM136 0q-3 27 -5.5 48t-4.5 36q-15 89 -36 121h1087
q-10 -15 -19.5 -45t-15.5 -76l-11 -84h-995z" />
    <glyph glyph-name="OE" unicode="&#x152;" horiz-adv-x="2093" 
d="M2033 0h-1034l27 48q-38 -20 -102.5 -34t-152.5 -14q-327 0 -519 231q-191 232 -191 623q0 394 190 635t520 241q46 0 83 -4t74 -15q28 -8 53.5 -17t48.5 -23l-10 31q-2 8 -19 28h935v-286q-28 17 -51.5 29.5t-43.5 19.5q-40 14 -108 14h-438v-92h576v-225h-576v-967h534
q73 0 131 23l73 40v-286zM1043 1412q-25 23 -52.5 42t-56.5 33q-35 17 -75 24t-88 7q-227 0 -362 -199q-123 -185 -123 -465q0 -279 123 -454q132 -188 360 -188q43 0 79.5 6t74.5 21q72 27 120 66v1107z" />
    <glyph glyph-name="oe" unicode="&#x153;" horiz-adv-x="2093" 
d="M2033 0h-1034l27 48q-38 -20 -102.5 -34t-152.5 -14q-327 0 -519 231q-191 232 -191 623q0 394 190 635t520 241q46 0 83 -4t74 -15q28 -8 53.5 -17t48.5 -23l-10 31q-2 8 -19 28h935v-286q-28 17 -51.5 29.5t-43.5 19.5q-40 14 -108 14h-438v-92h576v-225h-576v-967h534
q73 0 131 23l73 40v-286zM1043 1412q-25 23 -52.5 42t-56.5 33q-35 17 -75 24t-88 7q-227 0 -362 -199q-123 -185 -123 -465q0 -279 123 -454q132 -188 360 -188q43 0 79.5 6t74.5 21q72 27 120 66v1107z" />
    <glyph glyph-name="Scaron" unicode="&#x160;" horiz-adv-x="1144" 
d="M1096 498q0 -233 -161 -382q-155 -141 -384 -141q-55 0 -102 5.5t-88 15.5q-42 10 -85 24t-89 34q-33 15 -77 37.5t-99 53.5l183 254q53 -89 153 -140q49 -25 99.5 -38t104.5 -13q67 0 119 18.5t93 54.5q88 80 88 232q0 84 -38 169q-35 75 -97 144q-47 51 -132 126
q-38 33 -80.5 70t-87.5 79q-48 45 -82 83.5t-55 72.5q-29 45 -42.5 92t-13.5 95q0 80 25 140t74 103q88 76 229 76q102 0 177 -21q76 -21 163 -75l-145 -200q-35 23 -55 36.5t-27 17.5q-40 25 -84 25q-121 0 -121 -92q0 -59 107 -161q54 -51 109 -101t112 -101
q48 -45 83.5 -84.5t66.5 -78.5q71 -91 115 -198.5t44 -231.5z" />
    <glyph glyph-name="scaron" unicode="&#x161;" horiz-adv-x="1255" 
d="M1085 1484q-22 15 -41 25t-41 19q-30 13 -76 13q-59 0 -93 -49q-31 -44 -31 -98q0 -42 8.5 -95t25.5 -119l66 -269q17 -67 25.5 -135.5t8.5 -129.5q0 -295 -195 -485q-195 -189 -483 -189q-3 0 -15 1t-33 3q-42 3 -67 3h-14h-16h-14h-13h-31.5t-23.5 1v281
q42 -19 71.5 -30t56 -17t55 -8t67.5 -2q94 -2 168.5 33t130.5 104q102 126 102 319q0 125 -32 261l-62 260q-17 69 -26 125.5t-9 101.5q0 142 96 241q104 107 269 107h36t44 -4l86 -10v-258z" />
    <glyph glyph-name="Ydieresis" unicode="&#x178;" horiz-adv-x="1043" 
d="M1073 1730q-23 -9 -51 -29t-72 -60q-27 -23 -51 -45t-54 -55l-116 -127l-99 -117v-1093q0 -34 0.5 -55.5t5.5 -45.5t13.5 -49t24.5 -54h-314q31 43 40 105q6 34 6 99v1081l-102 114l-72 79q-14 15 -23.5 25t-14.5 15q-27 30 -50 54t-44 45q-36 36 -70 64.5t-67 48.5h422
l-2 -29q-2 -29 10 -56.5t34 -52.5l86 -97l39 49l48 62q15 19 24 33.5t15 28.5q12 27 12 62h422zM877 1982h-243v243h243v-243zM460 1982h-243v243h243v-243z" />
    <glyph glyph-name="circumflex" unicode="&#x2c6;" horiz-adv-x="692" 
d="M694 1387h-212l-133 166l-134 -166h-213l254 343h185z" />
    <glyph glyph-name="tilde" unicode="&#x2dc;" horiz-adv-x="692" 
d="M660 1516q-56 -36 -153 -36q-35 0 -75 7t-88 23q-92 31 -155 31q-20 0 -40 -3.5t-40 -12.5q-17 -8 -36 -21t-36 -27v217q55 36 152 36q58 0 118 -18q147 -43 200 -43q44 0 80 16q22 10 38.5 20.5t34.5 27.5v-217z" />
    <glyph glyph-name="endash" unicode="&#x2013;" horiz-adv-x="1267" 
d="M1038 648h-922l105 222h923z" />
    <glyph glyph-name="emdash" unicode="&#x2014;" horiz-adv-x="1730" 
d="M1615 648h-1499v222h1499v-222z" />
    <glyph glyph-name="quoteleft" unicode="&#x2018;" horiz-adv-x="452" 
d="M385 1694q-5 -5 -10.5 -11.5t-10.5 -13.5q-8 -10 -14.5 -19.5t-12.5 -18.5q-11 -17 -19 -34t-13 -35q28 -17 48 -56q19 -39 19 -70q0 -51 -36 -85q-36 -33 -90 -33q-60 0 -101 47q-39 46 -39 109q0 86 77 175q72 81 128 81q38 0 74 -36z" />
    <glyph glyph-name="quoteright" unicode="&#x2019;" horiz-adv-x="452" 
d="M372 1574q0 -86 -75 -171q-73 -85 -131 -85q-37 0 -74 36q30 33 49.5 63.5t31.5 68.5q-15 9 -26 22t-23 33q-18 39 -18 72q0 24 9.5 45.5t26 37.5t39.5 25t50 9q62 0 100 -47q20 -24 30.5 -50.5t10.5 -58.5z" />
    <glyph glyph-name="quotesinglbase" unicode="&#x201a;" horiz-adv-x="452" 
d="M372 61q0 -88 -75 -172q-75 -85 -131 -85q-37 0 -74 36q33 38 51 66t30 66q-30 19 -49 56q-10 19 -14 36.5t-4 34.5q0 25 9.5 46.5t26 37.5t39.5 25t50 9q60 0 100 -48q20 -23 30.5 -49.5t10.5 -58.5z" />
    <glyph glyph-name="quotedblleft" unicode="&#x201c;" horiz-adv-x="826" 
d="M759 1694q-5 -5 -10.5 -11.5t-10.5 -13.5q-23 -31 -36.5 -53.5t-22.5 -53.5q28 -17 48 -56q19 -39 19 -70q0 -51 -36 -85q-36 -33 -90 -33q-60 0 -101 47q-39 46 -39 109q0 88 77 175q72 81 128 81q38 0 74 -36zM385 1694q-5 -5 -10.5 -11.5t-10.5 -13.5
q-8 -10 -14.5 -19.5t-12.5 -18.5q-11 -17 -19 -34t-13 -35q28 -17 48 -56q19 -39 19 -70q0 -51 -36 -85q-36 -33 -90 -33q-60 0 -101 47q-39 46 -39 109q0 86 77 175q72 81 128 81q38 0 74 -36z" />
    <glyph glyph-name="quotedblright" unicode="&#x201d;" horiz-adv-x="826" 
d="M746 1574q0 -88 -76 -173q-72 -83 -130 -83q-37 0 -74 36q31 34 50 65q10 17 17 31.5t14 35.5q-15 9 -26 22t-23 33q-18 39 -18 72q0 24 9.5 45.5t26 37.5t39.5 25t50 9q62 0 100 -47q20 -24 30.5 -50.5t10.5 -58.5zM372 1574q0 -86 -75 -171q-73 -85 -131 -85
q-37 0 -74 36q30 33 49.5 63.5t31.5 68.5q-15 9 -26 22t-23 33q-18 39 -18 72q0 24 9.5 45.5t26 37.5t39.5 25t50 9q62 0 100 -47q20 -24 30.5 -50.5t10.5 -58.5z" />
    <glyph glyph-name="quotedblbase" unicode="&#x201e;" horiz-adv-x="826" 
d="M746 61q0 -86 -75 -172q-75 -85 -131 -85q-37 0 -74 36q34 38 50 65q10 17 17 31.5t14 35.5q-30 19 -49 56q-10 19 -14 36.5t-4 34.5q0 25 9.5 46.5t26 37.5t39.5 25t50 9q60 0 100 -48q20 -23 30.5 -49.5t10.5 -58.5zM372 61q0 -88 -75 -172q-75 -85 -131 -85
q-37 0 -74 36q33 38 51 66t30 66q-30 19 -49 56q-10 19 -14 36.5t-4 34.5q0 25 9.5 46.5t26 37.5t39.5 25t50 9q60 0 100 -48q20 -23 30.5 -49.5t10.5 -58.5z" />
    <glyph glyph-name="dagger" unicode="&#x2020;" horiz-adv-x="912" 
d="M845 1131h-269l-23 -1133h-193l-21 1133h-270v219h265l-11 311h268l-11 -311h265v-219z" />
    <glyph glyph-name="daggerdbl" unicode="&#x2021;" horiz-adv-x="914" 
d="M845 311h-265l11 -311h-268l11 311h-265v219h270l5 301l-5 300h-270v219h265l-11 311h268l-11 -311h265v-219h-271l-4 -300l4 -301h271v-219z" />
    <glyph glyph-name="bullet" unicode="&#x2022;" horiz-adv-x="840" 
d="M725 866q0 -142 -91 -242q-90 -100 -214 -100q-125 0 -215 99q-89 100 -89 243q0 139 89 240t215 101q127 0 215 -100q90 -101 90 -241z" />
    <glyph glyph-name="ellipsis" unicode="&#x2026;" horiz-adv-x="1043" 
d="M990 116q0 -48 -35 -83q-35 -33 -83 -33q-51 0 -84 32.5t-33 83.5q0 48 34 82q35 35 83 35t83 -35t35 -82zM639 116q0 -24 -9.5 -45.5t-25.5 -37t-37.5 -24.5t-45.5 -9t-45.5 8.5t-37.5 24t-25 37t-9 46.5q0 47 35 82t82 35q48 0 83 -35t35 -82zM288 116q0 -48 -35 -83
q-35 -33 -82 -33q-51 0 -84.5 32.5t-33.5 83.5q0 47 35 82t83 35q47 0 82 -35t35 -82z" />
    <glyph glyph-name="perthousand" unicode="&#x2030;" horiz-adv-x="2605" 
d="M2434 399q0 -202 -68 -309q-72 -113 -220 -113q-138 0 -208 126q-31 56 -45.5 125.5t-14.5 162.5q0 196 62 350q73 180 204 180q143 0 223 -173q67 -144 67 -349zM1770 399q0 -204 -68 -309q-72 -113 -220 -113q-138 0 -208 126q-29 54 -45 126t-16 162q0 198 63 350
q73 180 204 180q143 0 223 -173q67 -144 67 -349zM1447 1562q-25 -28 -48.5 -58.5t-37.5 -53.5q-16 -25 -29 -49t-22 -47l-534 -1354h-280q20 22 43.5 51.5t43.5 70.5l24 48q6 13 12 25.5t11 25.5l533 1341h284zM719 1041q0 -207 -67 -309q-75 -114 -221 -114
q-139 0 -208 128q-30 55 -44.5 125t-14.5 161q0 199 63 352q72 178 202 178q143 0 224 -173q34 -73 50 -160t16 -188zM2259 420q0 99 -29 188q-28 88 -82 88q-41 0 -68 -96q-26 -96 -26 -194q0 -42 4 -77t13 -63q24 -75 77 -75q67 0 93 72q9 26 13.5 66t4.5 91zM1594 420
q0 99 -29 188q-28 88 -81 88q-43 0 -69 -95q-26 -96 -26 -195q0 -85 18 -140q22 -75 77 -75q66 0 92 72q9 26 13.5 66t4.5 91zM545 1062q0 101 -28 182q-32 95 -84 95q-43 0 -69 -95q-14 -49 -19.5 -97.5t-5.5 -99.5q0 -42 4 -76.5t13 -62.5q24 -75 77 -75q66 0 93 71
q11 28 15 67t4 91z" />
    <glyph glyph-name="guilsinglleft" unicode="&#x2039;" horiz-adv-x="526" 
d="M436 519l-346 224v152l346 222v-208l-133 -92l133 -92v-206z" />
    <glyph glyph-name="guilsinglright" unicode="&#x203a;" horiz-adv-x="526" 
d="M436 743l-346 -224v206l133 92l-133 92v208l346 -222v-152z" />
    <glyph glyph-name="Euro" unicode="&#x20ac;" 
d="M805 1250l-86 -187h-424q5 -29 11 -56.5t14 -54.5h485l-86 -187h-315q16 -29 36 -57q130 -189 335 -313q188 -113 330 -113v-268q-140 34 -263.5 88t-240.5 132q-126 85 -223.5 183t-168.5 213q-79 129 -117.5 267t-38.5 287q0 254 152 421q153 168 380 168q31 0 68 -1
t61 -3l204 -11v-302q-37 24 -76 44t-71 31t-69.5 15t-80.5 4q-150 0 -242 -104q-69 -77 -86 -196h512z" />
    <glyph glyph-name="trademark" unicode="&#x2122;" horiz-adv-x="1583" 
d="M1093 1623l86 73q1 1 10 8.5t12 11.5q5 4 10 14h238q-9 -12 -15 -52l-3 -77v-26v-15q0 -22 4.5 -89.5t14.5 -181.5l13 -153q2 -29 6.5 -70.5t10.5 -96.5q0 -19 9 -47q2 -6 5.5 -12.5t7.5 -13.5l18 -30h-265q13 19 19 50l6 24t0 27l-41 515l-146 -118l-145 118l-42 -515
q-2 -18 0.5 -32t6.5 -24q4 -15 7 -23t12 -22h-265q15 21 29 56q12 28 12 47l18 194l22 255l9 142v41l-3 80q-1 13 -4 25.5t-12 23.5h238q1 -1 2.5 -4t9.5 -10q4 -6 10.5 -11.5t10.5 -8.5zM717 1753q0 -82 -39 -140q-37 -58 -98 -58h-93v-588q0 -26 4 -52.5t19 -48.5h-245
q5 7 9.5 17.5t8.5 21.5q3 15 4 26t1 36v588h-105q-16 0 -24 -1.5t-22 -6.5q-13 -5 -27.5 -11.5t-29.5 -15.5v210h532q34 0 105 23z" />
    <glyph glyph-name="uni2219" unicode="&#x2219;" horiz-adv-x="565" 
d="M0 0v0v0v0v0z" />
  </font>
</defs>
</svg>
